<?xml version="1.0" encoding="UTF-8"?>
<!DOCTYPE svg PUBLIC "-//W3C//DTD SVG 1.1//EN" "http://www.w3.org/Graphics/SVG/1.1/DTD/svg11.dtd">
<svg xmlns="http://www.w3.org/2000/svg" version="1.1" width="591px" height="454px" style="shape-rendering:geometricPrecision; text-rendering:geometricPrecision; image-rendering:optimizeQuality; fill-rule:evenodd; clip-rule:evenodd" xmlns:xlink="http://www.w3.org/1999/xlink">
<g><path style="opacity:1" fill="#f9f9f9" d="M -0.5,-0.5 C 196.5,-0.5 393.5,-0.5 590.5,-0.5C 590.5,150.833 590.5,302.167 590.5,453.5C 393.5,453.5 196.5,453.5 -0.5,453.5C -0.5,302.167 -0.5,150.833 -0.5,-0.5 Z"/></g>
<g><path style="opacity:1" fill="#c9e4d5" d="M 316.5,36.5 C 308.015,35.7104 299.515,35.0437 291,34.5C 284.498,34.8671 277.998,35.2004 271.5,35.5C 277.936,34.0126 284.602,33.3459 291.5,33.5C 300.135,33.1415 308.469,34.1415 316.5,36.5 Z"/></g>
<g><path style="opacity:1" fill="#d4ebde" d="M 270.5,35.5 C 264.661,36.9885 258.661,38.3219 252.5,39.5C 253.429,38.6851 254.429,37.8518 255.5,37C 260.464,36.0878 265.464,35.5878 270.5,35.5 Z"/></g>
<g><path style="opacity:1" fill="#bfd6cb" d="M 324.5,38.5 C 327.152,38.4095 329.485,39.0762 331.5,40.5C 330.167,40.5 328.833,40.5 327.5,40.5C 326.5,39.8333 325.5,39.1667 324.5,38.5 Z"/></g>
<g><path style="opacity:1" fill="#3d8862" d="M 316.5,36.5 C 318.838,38.0395 321.505,38.7062 324.5,38.5C 325.5,39.1667 326.5,39.8333 327.5,40.5C 322.714,39.5888 318.047,39.2555 313.5,39.5C 312.5,39.6667 311.5,39.8333 310.5,40C 311.942,40.3768 312.942,41.2101 313.5,42.5C 311.167,42.5 308.833,42.5 306.5,42.5C 305.5,42.5 304.5,42.5 303.5,42.5C 297.355,41.5098 291.022,41.1765 284.5,41.5C 284.611,40.8826 284.944,40.3826 285.5,40C 292.274,39.9221 298.941,39.2554 305.5,38C 299.605,36.8756 293.605,36.3756 287.5,36.5C 279.739,36.3143 272.072,36.981 264.5,38.5C 262.985,39.5905 262.152,40.9239 262,42.5C 265.057,41.5495 268.223,41.2161 271.5,41.5C 270.833,42.1667 270.167,42.8333 269.5,43.5C 262.491,45.0359 255.491,46.7026 248.5,48.5C 250.3,45.7589 252.966,44.2589 256.5,44C 256.018,42.9916 255.852,41.825 256,40.5C 248.512,43.5151 240.678,45.8485 232.5,47.5C 238.505,44.0805 244.838,41.4138 251.5,39.5C 251.833,39.5 252.167,39.5 252.5,39.5C 258.661,38.3219 264.661,36.9885 270.5,35.5C 270.833,35.5 271.167,35.5 271.5,35.5C 277.998,35.2004 284.498,34.8671 291,34.5C 299.515,35.0437 308.015,35.7104 316.5,36.5 Z"/></g>
<g><path style="opacity:1" fill="#23814f" d="M 284.5,41.5 C 280.167,41.5 275.833,41.5 271.5,41.5C 268.223,41.2161 265.057,41.5495 262,42.5C 262.152,40.9239 262.985,39.5905 264.5,38.5C 272.072,36.981 279.739,36.3143 287.5,36.5C 293.605,36.3756 299.605,36.8756 305.5,38C 298.941,39.2554 292.274,39.9221 285.5,40C 284.944,40.3826 284.611,40.8826 284.5,41.5 Z"/></g>
<g><path style="opacity:1" fill="#6b9981" d="M 271.5,41.5 C 275.833,41.5 280.167,41.5 284.5,41.5C 291.022,41.1765 297.355,41.5098 303.5,42.5C 292.14,42.2826 280.807,42.6159 269.5,43.5C 270.167,42.8333 270.833,42.1667 271.5,41.5 Z"/></g>
<g><path style="opacity:1" fill="#589274" d="M 306.5,42.5 C 308.833,42.5 311.167,42.5 313.5,42.5C 317.201,43.1177 320.867,43.951 324.5,45C 325.942,45.3768 326.942,46.2101 327.5,47.5C 320.371,45.9301 313.371,44.2634 306.5,42.5 Z"/></g>
<g><path style="opacity:1" fill="#dff1e9" d="M 251.5,39.5 C 244.838,41.4138 238.505,44.0805 232.5,47.5C 231.391,47.5569 230.391,47.8902 229.5,48.5C 229.167,48.5 228.833,48.5 228.5,48.5C 229.716,46.5491 231.382,45.0491 233.5,44C 235.941,43.964 237.941,43.1307 239.5,41.5C 243.476,40.6145 247.476,39.9478 251.5,39.5 Z"/></g>
<g><path style="opacity:1" fill="#218352" d="M 327.5,40.5 C 328.29,41.7942 329.29,42.9609 330.5,44C 333.5,44.3333 336.5,44.6667 339.5,45C 342.228,45.6389 342.728,46.8056 341,48.5C 338.45,48.0447 335.616,47.7114 332.5,47.5C 331.167,47.5 329.833,47.5 328.5,47.5C 328.167,47.5 327.833,47.5 327.5,47.5C 326.942,46.2101 325.942,45.3768 324.5,45C 320.867,43.951 317.201,43.1177 313.5,42.5C 312.942,41.2101 311.942,40.3768 310.5,40C 311.5,39.8333 312.5,39.6667 313.5,39.5C 318.047,39.2555 322.714,39.5888 327.5,40.5 Z"/></g>
<g><path style="opacity:1" fill="#c4dfd0" d="M 342.5,44.5 C 345.491,44.1663 347.824,45.1663 349.5,47.5C 346.843,47.0652 344.509,46.0652 342.5,44.5 Z"/></g>
<g><path style="opacity:1" fill="#6f9e89" d="M 328.5,47.5 C 329.833,47.5 331.167,47.5 332.5,47.5C 333.5,48.1667 334.5,48.8333 335.5,49.5C 332.848,49.5905 330.515,48.9238 328.5,47.5 Z"/></g>
<g><path style="opacity:1" fill="#237f53" d="M 248.5,48.5 C 248.167,48.5 247.833,48.5 247.5,48.5C 243.513,47.9288 240.513,49.2621 238.5,52.5C 233.45,53.1882 228.45,54.1882 223.5,55.5C 223.5,56.5 223.5,57.5 223.5,58.5C 221.856,58.2865 220.356,58.6198 219,59.5C 218.833,59 218.667,58.5 218.5,58C 220.635,56.2461 222.302,54.0794 223.5,51.5C 225.967,51.2451 227.967,50.2451 229.5,48.5C 230.391,47.8902 231.391,47.5569 232.5,47.5C 240.678,45.8485 248.512,43.5151 256,40.5C 255.852,41.825 256.018,42.9916 256.5,44C 252.966,44.2589 250.3,45.7589 248.5,48.5 Z"/></g>
<g><path style="opacity:1" fill="#d1e7dc" d="M 349.5,47.5 C 353.942,47.2937 357.275,48.9604 359.5,52.5C 359.167,52.5 358.833,52.5 358.5,52.5C 358.167,52.5 357.833,52.5 357.5,52.5C 354.833,50.8333 352.167,49.1667 349.5,47.5 Z"/></g>
<g><path style="opacity:1" fill="#559073" d="M 247.5,48.5 C 244.744,50.2038 241.744,51.5371 238.5,52.5C 240.513,49.2621 243.513,47.9288 247.5,48.5 Z"/></g>
<g><path style="opacity:1" fill="#6e9c83" d="M 335.5,49.5 C 339.919,50.5421 344.252,51.8755 348.5,53.5C 348.5,54.1667 348.833,54.5 349.5,54.5C 349.833,55.1667 350.167,55.8333 350.5,56.5C 345.201,54.7373 340.201,52.404 335.5,49.5 Z"/></g>
<g><path style="opacity:1" fill="#30815a" d="M 327.5,40.5 C 328.833,40.5 330.167,40.5 331.5,40.5C 335.081,41.8073 338.747,43.1406 342.5,44.5C 344.509,46.0652 346.843,47.0652 349.5,47.5C 352.167,49.1667 354.833,50.8333 357.5,52.5C 354.934,52.6556 352.434,52.3223 350,51.5C 348.97,51.8361 348.47,52.5028 348.5,53.5C 344.252,51.8755 339.919,50.5421 335.5,49.5C 334.5,48.8333 333.5,48.1667 332.5,47.5C 335.616,47.7114 338.45,48.0447 341,48.5C 342.728,46.8056 342.228,45.6389 339.5,45C 336.5,44.6667 333.5,44.3333 330.5,44C 329.29,42.9609 328.29,41.7942 327.5,40.5 Z"/></g>
<g><path style="opacity:1" fill="#79a48f" d="M 228.5,48.5 C 228.833,48.5 229.167,48.5 229.5,48.5C 227.967,50.2451 225.967,51.2451 223.5,51.5C 224.768,49.953 226.435,48.953 228.5,48.5 Z"/></g>
<g><path style="opacity:1" fill="#218453" d="M 357.5,52.5 C 357.833,52.5 358.167,52.5 358.5,52.5C 358.5,53.5 358.5,54.5 358.5,55.5C 362.552,56.4785 365.885,58.6451 368.5,62C 367.833,62.1667 367.167,62.3333 366.5,62.5C 364.548,61.7917 362.881,60.625 361.5,59C 357.345,57.7489 353.345,56.2489 349.5,54.5C 348.833,54.5 348.5,54.1667 348.5,53.5C 348.47,52.5028 348.97,51.8361 350,51.5C 352.434,52.3223 354.934,52.6556 357.5,52.5 Z"/></g>
<g><path style="opacity:1" fill="#3d8461" d="M 223.5,51.5 C 222.302,54.0794 220.635,56.2461 218.5,58C 218.667,58.5 218.833,59 219,59.5C 220.356,58.6198 221.856,58.2865 223.5,58.5C 223.5,57.5 223.5,56.5 223.5,55.5C 228.45,54.1882 233.45,53.1882 238.5,52.5C 231.005,55.5808 223.672,59.2474 216.5,63.5C 216.5,62.1667 216.5,60.8333 216.5,59.5C 212.5,60.8333 208.5,62.1667 204.5,63.5C 210.656,59.2531 216.99,55.2531 223.5,51.5 Z"/></g>
<g><path style="opacity:1" fill="#36825d" d="M 358.5,52.5 C 358.833,52.5 359.167,52.5 359.5,52.5C 368.419,58.0773 377.086,64.0773 385.5,70.5C 388.833,74.5 392.5,78.1667 396.5,81.5C 396.833,82.1667 397.167,82.8333 397.5,83.5C 396.448,83.6495 395.448,83.4828 394.5,83C 391.045,78.577 387.045,74.7437 382.5,71.5C 381.713,72.2421 381.047,73.0754 380.5,74C 382.468,76.7409 384.968,78.9076 388,80.5C 389.438,81.9003 390.271,83.567 390.5,85.5C 386.808,82.1383 383.141,78.8049 379.5,75.5C 378.089,73.086 376.089,71.4194 373.5,70.5C 366.028,65.5934 358.361,60.9267 350.5,56.5C 350.167,55.8333 349.833,55.1667 349.5,54.5C 353.345,56.2489 357.345,57.7489 361.5,59C 362.881,60.625 364.548,61.7917 366.5,62.5C 367.167,62.3333 367.833,62.1667 368.5,62C 365.885,58.6451 362.552,56.4785 358.5,55.5C 358.5,54.5 358.5,53.5 358.5,52.5 Z"/></g>
<g><path style="opacity:1" fill="#4e8267" d="M 204.5,63.5 C 204.67,64.8221 204.337,65.9887 203.5,67C 199.949,69.3886 196.283,71.5552 192.5,73.5C 196.183,69.8197 200.183,66.4864 204.5,63.5 Z"/></g>
<g><path style="opacity:1" fill="#2a7f54" d="M 216.5,63.5 C 212.269,65.0709 208.269,67.0709 204.5,69.5C 204.5,70.5 204.5,71.5 204.5,72.5C 200.335,72.4098 198.002,74.4098 197.5,78.5C 195.167,81.5 192.5,84.1667 189.5,86.5C 185.077,88.0813 183.41,86.4146 184.5,81.5C 186.833,78.5 189.5,75.8333 192.5,73.5C 196.283,71.5552 199.949,69.3886 203.5,67C 204.337,65.9887 204.67,64.8221 204.5,63.5C 208.5,62.1667 212.5,60.8333 216.5,59.5C 216.5,60.8333 216.5,62.1667 216.5,63.5 Z"/></g>
<g><path style="opacity:1" fill="#3f795d" d="M 216.5,63.5 C 212.896,66.9749 208.896,69.9749 204.5,72.5C 204.5,71.5 204.5,70.5 204.5,69.5C 208.269,67.0709 212.269,65.0709 216.5,63.5 Z"/></g>
<g><path style="opacity:1" fill="#bbd8c9" d="M 385.5,70.5 C 390.167,73.1667 393.833,76.8333 396.5,81.5C 392.5,78.1667 388.833,74.5 385.5,70.5 Z"/></g>
<g><path style="opacity:1" fill="#457a5e" d="M 204.5,72.5 C 202.761,75.2427 200.427,77.2427 197.5,78.5C 198.002,74.4098 200.335,72.4098 204.5,72.5 Z"/></g>
<g><path style="opacity:1" fill="#deede2" d="M 303.5,73.5 C 301.167,73.5 298.833,73.5 296.5,73.5C 286.195,72.342 275.862,73.0087 265.5,75.5C 265.791,74.3509 266.624,73.6842 268,73.5C 280.003,71.0437 291.836,71.0437 303.5,73.5 Z"/></g>
<g><path style="opacity:1" fill="#7bab8b" d="M 296.5,73.5 C 288.495,73.8574 280.495,74.3574 272.5,75C 267.771,77.3665 262.771,78.5331 257.5,78.5C 259.792,76.7329 262.458,75.7329 265.5,75.5C 275.862,73.0087 286.195,72.342 296.5,73.5 Z"/></g>
<g><path style="opacity:1" fill="#719f88" d="M 373.5,70.5 C 376.089,71.4194 378.089,73.086 379.5,75.5C 376.911,74.5806 374.911,72.914 373.5,70.5 Z"/></g>
<g><path style="opacity:1" fill="#d5e9da" d="M 303.5,74.5 C 303.5,74.1667 303.5,73.8333 303.5,73.5C 309.234,73.5816 314.901,74.2483 320.5,75.5C 320.863,76.1835 321.196,76.8501 321.5,77.5C 318.833,77.1667 316.167,76.8333 313.5,76.5C 310.456,74.9886 307.122,74.322 303.5,74.5 Z"/></g>
<g><path style="opacity:1" fill="#74ac89" d="M 313.5,76.5 C 316.167,76.8333 318.833,77.1667 321.5,77.5C 326.237,79.3025 330.904,81.3025 335.5,83.5C 332.052,83.8921 328.886,83.2254 326,81.5C 325.5,81.8333 325,82.1667 324.5,82.5C 325.127,83.4168 325.461,84.4168 325.5,85.5C 321.239,85.1016 317.239,84.1016 313.5,82.5C 316.898,82.8204 320.232,82.487 323.5,81.5C 319.928,80.1255 316.595,78.4588 313.5,76.5 Z"/></g>
<g><path style="opacity:1" fill="#d7ebde" d="M 303.5,80.5 C 305.167,81.1667 306.833,81.8333 308.5,82.5C 302.845,82.0672 297.179,81.7339 291.5,81.5C 283.496,82.1683 275.496,82.835 267.5,83.5C 268.833,82.8333 270.167,82.1667 271.5,81.5C 282.143,80.6548 292.81,80.3215 303.5,80.5 Z"/></g>
<g><path style="opacity:1" fill="#7cad90" d="M 271.5,81.5 C 270.167,82.1667 268.833,82.8333 267.5,83.5C 262.15,84.704 256.817,86.0374 251.5,87.5C 254.71,85.5908 258.043,83.9242 261.5,82.5C 264.768,81.513 268.102,81.1796 271.5,81.5 Z"/></g>
<g><path style="opacity:1" fill="#5aa576" d="M 296.5,73.5 C 298.833,73.5 301.167,73.5 303.5,73.5C 303.5,73.8333 303.5,74.1667 303.5,74.5C 307.122,74.322 310.456,74.9886 313.5,76.5C 316.595,78.4588 319.928,80.1255 323.5,81.5C 320.232,82.487 316.898,82.8204 313.5,82.5C 313.167,82.5 312.833,82.5 312.5,82.5C 309.829,80.8819 306.829,80.2153 303.5,80.5C 298.344,79.8339 293.011,79.5006 287.5,79.5C 281.789,79.5051 276.456,80.1718 271.5,81.5C 268.102,81.1796 264.768,81.513 261.5,82.5C 258.043,83.9242 254.71,85.5908 251.5,87.5C 249.076,87.8076 246.743,87.4742 244.5,86.5C 244.977,85.5224 245.643,84.6891 246.5,84C 249.823,82.9601 252.823,81.4601 255.5,79.5C 255.842,78.6618 256.508,78.3284 257.5,78.5C 262.771,78.5331 267.771,77.3665 272.5,75C 280.495,74.3574 288.495,73.8574 296.5,73.5 Z"/></g>
<g><path style="opacity:1" fill="#96bea5" d="M 303.5,80.5 C 306.829,80.2153 309.829,80.8819 312.5,82.5C 311.5,82.5 310.5,82.5 309.5,82.5C 309.167,82.5 308.833,82.5 308.5,82.5C 306.833,81.8333 305.167,81.1667 303.5,80.5 Z"/></g>
<g><path style="opacity:1" fill="#79a88c" d="M 303.5,80.5 C 292.81,80.3215 282.143,80.6548 271.5,81.5C 276.456,80.1718 281.789,79.5051 287.5,79.5C 293.011,79.5006 298.344,79.8339 303.5,80.5 Z"/></g>
<g><path style="opacity:1" fill="#4aa367" d="M 303.5,74.5 C 303.62,75.5862 304.287,76.2528 305.5,76.5C 307.909,76.9148 310.242,77.5815 312.5,78.5C 311.167,78.8333 309.833,79.1667 308.5,79.5C 297.648,78.8947 286.814,78.2281 276,77.5C 274.287,78.9526 272.787,78.7859 271.5,77C 282.104,75.3216 292.771,74.4883 303.5,74.5 Z"/></g>
<g><path style="opacity:1" fill="#d6ebdc" d="M 309.5,82.5 C 310.5,82.5 311.5,82.5 312.5,82.5C 312.833,82.5 313.167,82.5 313.5,82.5C 317.239,84.1016 321.239,85.1016 325.5,85.5C 327.076,86.1429 328.41,87.1429 329.5,88.5C 322.642,86.7903 315.975,84.7903 309.5,82.5 Z"/></g>
<g><path style="opacity:1" fill="#6da782" d="M 255.5,79.5 C 252.823,81.4601 249.823,82.9601 246.5,84C 245.643,84.6891 244.977,85.5224 244.5,86.5C 246.743,87.4742 249.076,87.8076 251.5,87.5C 250.833,88.1667 250.167,88.8333 249.5,89.5C 245.937,90.2824 242.603,91.6157 239.5,93.5C 240.263,91.4325 241.596,89.7659 243.5,88.5C 239.527,87.5828 236.36,88.9161 234,92.5C 233.282,91.5494 232.449,91.3828 231.5,92C 227.968,95.3955 223.968,98.0622 219.5,100C 215.218,104.765 211.218,109.599 207.5,114.5C 206.041,114.433 204.708,114.766 203.5,115.5C 204.75,113.068 206.25,110.734 208,108.5C 213.065,103.926 218.231,99.5926 223.5,95.5C 226.147,95.0713 228.147,93.7379 229.5,91.5C 237.344,85.9141 246.011,81.9141 255.5,79.5 Z"/></g>
<g><path style="opacity:1" fill="#a9cebd" d="M 391.5,87.5 C 393.587,88.5846 394.92,90.2512 395.5,92.5C 393.413,91.4154 392.08,89.7488 391.5,87.5 Z"/></g>
<g><path style="opacity:1" fill="#74ab8b" d="M 325.5,85.5 C 331.796,87.1437 337.796,89.6437 343.5,93C 344.252,93.6708 344.586,94.5041 344.5,95.5C 339.651,92.9097 334.651,90.5764 329.5,88.5C 328.41,87.1429 327.076,86.1429 325.5,85.5 Z"/></g>
<g><path style="opacity:1" fill="#cbe2d6" d="M 249.5,89.5 C 246.765,92.2011 243.431,93.8678 239.5,94.5C 239.5,94.1667 239.5,93.8333 239.5,93.5C 242.603,91.6157 245.937,90.2824 249.5,89.5 Z"/></g>
<g><path style="opacity:1" fill="#7bae8b" d="M 343.5,87.5 C 348.273,89.1044 352.273,91.7711 355.5,95.5C 350.427,94.3066 346.427,91.64 343.5,87.5 Z"/></g>
<g><path style="opacity:1" fill="#c5ddcb" d="M 229.5,91.5 C 228.147,93.7379 226.147,95.0713 223.5,95.5C 225.034,93.631 227.034,92.2977 229.5,91.5 Z"/></g>
<g><path style="opacity:1" fill="#bbd2c5" d="M 395.5,92.5 C 397.167,93.5 398.5,94.8333 399.5,96.5C 399.5,96.8333 399.5,97.1667 399.5,97.5C 397.413,96.4154 396.08,94.7488 395.5,92.5 Z"/></g>
<g><path style="opacity:1" fill="#288055" d="M 397.5,83.5 C 399.544,87.9222 401.711,92.2555 404,96.5C 405.299,96.0338 406.799,96.0338 408.5,96.5C 410.9,98.2964 412.567,100.63 413.5,103.5C 413.517,105.565 413.85,107.565 414.5,109.5C 414.703,111.044 415.37,112.378 416.5,113.5C 414.141,116.038 412.641,115.371 412,111.5C 411.329,110.748 410.496,110.414 409.5,110.5C 407.902,108.302 406.569,105.969 405.5,103.5C 405.085,99.5991 403.085,97.2657 399.5,96.5C 398.5,94.8333 397.167,93.5 395.5,92.5C 394.92,90.2512 393.587,88.5846 391.5,87.5C 391.167,86.8333 390.833,86.1667 390.5,85.5C 390.271,83.567 389.438,81.9003 388,80.5C 384.968,78.9076 382.468,76.7409 380.5,74C 381.047,73.0754 381.713,72.2421 382.5,71.5C 387.045,74.7437 391.045,78.577 394.5,83C 395.448,83.4828 396.448,83.6495 397.5,83.5 Z"/></g>
<g><path style="opacity:1" fill="#408263" d="M 397.5,83.5 C 402.287,86.9481 405.954,91.2814 408.5,96.5C 406.799,96.0338 405.299,96.0338 404,96.5C 401.711,92.2555 399.544,87.9222 397.5,83.5 Z"/></g>
<g><path style="opacity:1" fill="#c2dfcd" d="M 359.5,97.5 C 361.749,98.0798 363.415,99.4131 364.5,101.5C 362.251,100.92 360.585,99.5869 359.5,97.5 Z"/></g>
<g><path style="opacity:1" fill="#74ac88" d="M 344.5,95.5 C 350.69,95.7895 355.023,98.7895 357.5,104.5C 352.886,101.883 348.553,98.8827 344.5,95.5 Z"/></g>
<g><path style="opacity:1" fill="#467c62" d="M 399.5,97.5 C 399.5,97.1667 399.5,96.8333 399.5,96.5C 403.085,97.2657 405.085,99.5991 405.5,103.5C 403.139,101.806 401.139,99.8061 399.5,97.5 Z"/></g>
<g><path style="opacity:1" fill="#54a572" d="M 239.5,93.5 C 234.407,95.5453 229.407,97.8786 224.5,100.5C 222.201,103.255 219.535,105.588 216.5,107.5C 215.571,108.689 215.238,110.022 215.5,111.5C 214.833,112.833 213.833,113.833 212.5,114.5C 211.448,114.351 210.448,114.517 209.5,115C 208.257,117.116 207.091,119.282 206,121.5C 204.506,122.747 203.006,122.747 201.5,121.5C 202.372,119.55 203.039,117.55 203.5,115.5C 204.708,114.766 206.041,114.433 207.5,114.5C 211.218,109.599 215.218,104.765 219.5,100C 223.968,98.0622 227.968,95.3955 231.5,92C 232.449,91.3828 233.282,91.5494 234,92.5C 236.36,88.9161 239.527,87.5828 243.5,88.5C 241.596,89.7659 240.263,91.4325 239.5,93.5 Z"/></g>
<g><path style="opacity:1" fill="#54a473" d="M 335.5,83.5 C 338.485,84.3257 341.151,85.659 343.5,87.5C 346.427,91.64 350.427,94.3066 355.5,95.5C 356.5,96.1667 357.5,96.8333 358.5,97.5C 358.238,98.9778 358.571,100.311 359.5,101.5C 365.423,104.922 370.59,109.256 375,114.5C 376.091,116.718 377.257,118.884 378.5,121C 374.039,120.701 371.705,118.201 371.5,113.5C 368.892,113.6 366.558,112.933 364.5,111.5C 361.833,109.5 359.5,107.167 357.5,104.5C 355.023,98.7895 350.69,95.7895 344.5,95.5C 344.586,94.5041 344.252,93.6708 343.5,93C 337.796,89.6437 331.796,87.1437 325.5,85.5C 325.461,84.4168 325.127,83.4168 324.5,82.5C 325,82.1667 325.5,81.8333 326,81.5C 328.886,83.2254 332.052,83.8921 335.5,83.5 Z"/></g>
<g><path style="opacity:1" fill="#73a686" d="M 239.5,93.5 C 239.5,93.8333 239.5,94.1667 239.5,94.5C 230.945,99.3895 222.945,105.056 215.5,111.5C 215.238,110.022 215.571,108.689 216.5,107.5C 219.535,105.588 222.201,103.255 224.5,100.5C 229.407,97.8786 234.407,95.5453 239.5,93.5 Z"/></g>
<g><path style="opacity:1" fill="#3a805c" d="M 184.5,81.5 C 183.41,86.4146 185.077,88.0813 189.5,86.5C 186.49,89.8743 183.49,93.2077 180.5,96.5C 176.164,103.175 171.83,109.842 167.5,116.5C 167.141,114.234 167.808,112.401 169.5,111C 168.333,110.5 167.5,109.667 167,108.5C 164.706,111.473 162.206,114.14 159.5,116.5C 165.9,103.436 174.234,91.7693 184.5,81.5 Z"/></g>
<g><path style="opacity:1" fill="#227d50" d="M 180.5,96.5 C 177.465,98.8582 174.798,101.692 172.5,105C 171.552,105.483 170.552,105.649 169.5,105.5C 169.227,103.042 170.227,101.375 172.5,100.5C 173.792,97.3807 175.292,94.3807 177,91.5C 177.414,91.9574 177.914,92.2907 178.5,92.5C 179.82,90.3493 181.32,88.3493 183,86.5C 183.833,87.3333 184.667,88.1667 185.5,89C 184.027,89.7096 183.36,90.8762 183.5,92.5C 182.5,92.5 181.5,92.5 180.5,92.5C 180.5,93.8333 180.5,95.1667 180.5,96.5 Z"/></g>
<g><path style="opacity:1" fill="#60967f" d="M 413.5,103.5 C 416.223,106.586 418.723,109.92 421,113.5C 421.49,114.793 421.657,116.127 421.5,117.5C 419.167,114.833 416.833,112.167 414.5,109.5C 413.85,107.565 413.517,105.565 413.5,103.5 Z"/></g>
<g><path style="opacity:1" fill="#d9ebde" d="M 364.5,101.5 C 366.628,102.957 368.962,103.957 371.5,104.5C 371.5,105.5 371.5,106.5 371.5,107.5C 372.675,107.281 373.675,107.614 374.5,108.5C 375.986,110.302 376.986,112.302 377.5,114.5C 372.833,110.5 368.5,106.167 364.5,101.5 Z"/></g>
<g><path style="opacity:1" fill="#d2e5d5" d="M 296.5,112.5 C 290.131,112.347 283.797,112.68 277.5,113.5C 277.611,112.883 277.944,112.383 278.5,112C 284.681,111.181 290.681,111.347 296.5,112.5 Z"/></g>
<g><path style="opacity:1" fill="#9dc1a1" d="M 296.5,112.5 C 299.57,112.368 302.57,112.701 305.5,113.5C 306.167,114.167 306.833,114.833 307.5,115.5C 298.201,114.415 288.868,114.248 279.5,115C 276.69,115.782 274.023,116.616 271.5,117.5C 267.11,118.192 262.776,119.192 258.5,120.5C 264.034,116.428 270.368,114.095 277.5,113.5C 283.797,112.68 290.131,112.347 296.5,112.5 Z"/></g>
<g><path style="opacity:1" fill="#3a8360" d="M 414.5,109.5 C 416.833,112.167 419.167,114.833 421.5,117.5C 423.588,119.336 424.921,121.669 425.5,124.5C 425.427,126.027 426.094,127.027 427.5,127.5C 427.5,128.167 427.5,128.833 427.5,129.5C 427.5,130.167 427.5,130.833 427.5,131.5C 424.929,126.588 421.929,121.922 418.5,117.5C 418.167,118.167 417.833,118.833 417.5,119.5C 419.899,125.521 422.399,131.521 425,137.5C 425.494,139.134 425.66,140.801 425.5,142.5C 424.833,141.833 424.167,141.167 423.5,140.5C 423.657,139.127 423.49,137.793 423,136.5C 420.016,130.862 417.183,125.196 414.5,119.5C 413.331,116.489 411.664,113.822 409.5,111.5C 409.5,111.167 409.5,110.833 409.5,110.5C 410.496,110.414 411.329,110.748 412,111.5C 412.641,115.371 414.141,116.038 416.5,113.5C 415.37,112.378 414.703,111.044 414.5,109.5 Z"/></g>
<g><path style="opacity:1" fill="#85c08f" d="M 307.5,115.5 C 308.167,115.5 308.833,115.5 309.5,115.5C 309.721,116.735 310.388,117.735 311.5,118.5C 310.667,118.833 309.833,119.167 309,119.5C 297.333,118.167 285.667,118.167 274,119.5C 272.624,119.316 271.791,118.649 271.5,117.5C 274.023,116.616 276.69,115.782 279.5,115C 288.868,114.248 298.201,114.415 307.5,115.5 Z"/></g>
<g><path style="opacity:1" fill="#daeadb" d="M 305.5,113.5 C 308.487,113.998 311.487,114.498 314.5,115C 318.482,116.393 322.149,118.227 325.5,120.5C 320.134,118.822 314.801,117.155 309.5,115.5C 308.833,115.5 308.167,115.5 307.5,115.5C 306.833,114.833 306.167,114.167 305.5,113.5 Z"/></g>
<g><path style="opacity:1" fill="#c7e2d5" d="M 409.5,111.5 C 411.664,113.822 413.331,116.489 414.5,119.5C 413.292,118.766 411.959,118.433 410.5,118.5C 410.552,116.097 410.219,113.764 409.5,111.5 Z"/></g>
<g><path style="opacity:1" fill="#95c19f" d="M 309.5,115.5 C 314.801,117.155 320.134,118.822 325.5,120.5C 325.842,121.338 326.508,121.672 327.5,121.5C 329.07,123.947 331.07,125.947 333.5,127.5C 328.265,125.462 323.099,123.129 318,120.5C 317.5,120.667 317,120.833 316.5,121C 317.667,122.167 318.833,123.333 320,124.5C 320.333,124.167 320.667,123.833 321,123.5C 322.095,124.693 322.928,126.027 323.5,127.5C 316.155,124.163 308.489,121.83 300.5,120.5C 290.983,119.455 281.316,119.621 271.5,121C 270.584,121.278 269.918,121.778 269.5,122.5C 265.286,124.351 260.953,126.018 256.5,127.5C 257.675,125.914 259.009,124.414 260.5,123C 257.808,122.57 255.141,122.737 252.5,123.5C 254.181,121.992 256.181,120.992 258.5,120.5C 262.776,119.192 267.11,118.192 271.5,117.5C 271.791,118.649 272.624,119.316 274,119.5C 285.667,118.167 297.333,118.167 309,119.5C 309.833,119.167 310.667,118.833 311.5,118.5C 310.388,117.735 309.721,116.735 309.5,115.5 Z"/></g>
<g><path style="opacity:1" fill="#d2e3d4" d="M 300.5,120.5 C 290.125,120.602 279.791,121.268 269.5,122.5C 269.918,121.778 270.584,121.278 271.5,121C 281.316,119.621 290.983,119.455 300.5,120.5 Z"/></g>
<g><path style="opacity:1" fill="#63a47a" d="M 358.5,97.5 C 358.833,97.5 359.167,97.5 359.5,97.5C 360.585,99.5869 362.251,100.92 364.5,101.5C 368.5,106.167 372.833,110.5 377.5,114.5C 379.252,116.246 380.585,118.246 381.5,120.5C 381.5,121.833 381.5,123.167 381.5,124.5C 380.503,124.47 379.836,124.97 379.5,126C 381.26,128.685 382.594,131.518 383.5,134.5C 380.739,130.65 377.739,126.983 374.5,123.5C 371.566,119.227 368.233,115.227 364.5,111.5C 366.558,112.933 368.892,113.6 371.5,113.5C 371.705,118.201 374.039,120.701 378.5,121C 377.257,118.884 376.091,116.718 375,114.5C 370.59,109.256 365.423,104.922 359.5,101.5C 358.571,100.311 358.238,98.9778 358.5,97.5 Z"/></g>
<g><path style="opacity:1" fill="#54886f" d="M 159.5,116.5 C 159.416,119.327 158.75,121.994 157.5,124.5C 156.1,125.1 155.1,126.1 154.5,127.5C 154.853,123.174 156.52,119.507 159.5,116.5 Z"/></g>
<g><path style="opacity:1" fill="#227c51" d="M 167.5,116.5 C 166.559,118.05 165.893,119.716 165.5,121.5C 164.833,122.167 164.167,122.833 163.5,123.5C 160.639,126.18 158.472,129.514 157,133.5C 156.13,132.892 155.63,132.059 155.5,131C 156.274,128.846 156.941,126.679 157.5,124.5C 158.75,121.994 159.416,119.327 159.5,116.5C 162.206,114.14 164.706,111.473 167,108.5C 167.5,109.667 168.333,110.5 169.5,111C 167.808,112.401 167.141,114.234 167.5,116.5 Z"/></g>
<g><path style="opacity:1" fill="#68a37d" d="M 212.5,114.5 C 208.519,120.475 204.186,126.142 199.5,131.5C 199.5,130.167 199.5,128.833 199.5,127.5C 195.5,126.833 193.833,128.5 194.5,132.5C 193.5,132.5 192.5,132.5 191.5,132.5C 191.035,137.43 189.035,141.43 185.5,144.5C 186.456,139.802 188.289,135.468 191,131.5C 194.163,127.844 196.829,123.844 199,119.5C 200.371,117.959 201.871,116.625 203.5,115.5C 203.039,117.55 202.372,119.55 201.5,121.5C 203.006,122.747 204.506,122.747 206,121.5C 207.091,119.282 208.257,117.116 209.5,115C 210.448,114.517 211.448,114.351 212.5,114.5 Z"/></g>
<g><path style="opacity:1" fill="#d8ebdb" d="M 327.5,121.5 C 329.78,122.64 332.114,123.807 334.5,125C 335.252,125.671 335.586,126.504 335.5,127.5C 334.833,127.5 334.167,127.5 333.5,127.5C 331.07,125.947 329.07,123.947 327.5,121.5 Z"/></g>
<g><path style="opacity:1" fill="#d1e8dc" d="M 165.5,121.5 C 163.679,129.378 160.679,136.712 156.5,143.5C 158.258,136.646 160.592,129.98 163.5,123.5C 164.167,122.833 164.833,122.167 165.5,121.5 Z"/></g>
<g><path style="opacity:1" fill="#83bd8f" d="M 256.5,127.5 C 254.049,130.277 251.049,132.277 247.5,133.5C 244.796,134.632 242.129,135.965 239.5,137.5C 238.833,137.167 238.167,136.833 237.5,136.5C 238.853,135.476 239.52,134.143 239.5,132.5C 241.308,132.509 242.975,132.009 244.5,131C 246.267,128.61 248.6,126.943 251.5,126C 252.252,125.329 252.586,124.496 252.5,123.5C 255.141,122.737 257.808,122.57 260.5,123C 259.009,124.414 257.675,125.914 256.5,127.5 Z"/></g>
<g><path style="opacity:1" fill="#a7c7b8" d="M 425.5,124.5 C 426.906,124.973 427.573,125.973 427.5,127.5C 426.094,127.027 425.427,126.027 425.5,124.5 Z"/></g>
<g><path style="opacity:1" fill="#89bf94" d="M 333.5,127.5 C 334.167,127.5 334.833,127.5 335.5,127.5C 335.833,128.167 336.167,128.833 336.5,129.5C 338.765,131.988 341.098,134.488 343.5,137C 342.01,138.634 340.676,138.301 339.5,136C 338.207,135.51 336.873,135.343 335.5,135.5C 331.223,133.218 327.223,130.551 323.5,127.5C 322.928,126.027 322.095,124.693 321,123.5C 320.667,123.833 320.333,124.167 320,124.5C 318.833,123.333 317.667,122.167 316.5,121C 317,120.833 317.5,120.667 318,120.5C 323.099,123.129 328.265,125.462 333.5,127.5 Z"/></g>
<g><path style="opacity:1" fill="#7eaf90" d="M 381.5,120.5 C 384.479,124.432 387.479,128.432 390.5,132.5C 391.788,134.739 392.788,137.072 393.5,139.5C 392.833,139.5 392.167,139.5 391.5,139.5C 390.172,135.51 388.339,131.844 386,128.5C 384.306,127.301 382.806,125.968 381.5,124.5C 381.5,123.167 381.5,121.833 381.5,120.5 Z"/></g>
<g><path style="opacity:1" fill="#9cc1b0" d="M 427.5,129.5 C 429.213,130.635 429.88,132.302 429.5,134.5C 428.833,133.5 428.167,132.5 427.5,131.5C 427.5,130.833 427.5,130.167 427.5,129.5 Z"/></g>
<g><path style="opacity:1" fill="#d8ecdf" d="M 374.5,123.5 C 377.739,126.983 380.739,130.65 383.5,134.5C 383.704,136.685 384.37,138.685 385.5,140.5C 383.53,138.366 381.363,136.366 379,134.5C 378.087,130.478 376.587,126.811 374.5,123.5 Z"/></g>
<g><path style="opacity:1" fill="#3c7c5a" d="M 163.5,123.5 C 160.592,129.98 158.258,136.646 156.5,143.5C 154.39,147.502 153.057,151.835 152.5,156.5C 152.5,156.833 152.5,157.167 152.5,157.5C 151.833,159.167 151.167,160.833 150.5,162.5C 150.671,157.804 151.171,153.137 152,148.5C 155.343,143.903 156.177,138.903 154.5,133.5C 154.167,133.667 153.833,133.833 153.5,134C 152.133,136.672 151.133,139.505 150.5,142.5C 149.817,142.863 149.15,143.196 148.5,143.5C 149.905,137.833 151.905,132.499 154.5,127.5C 155.1,126.1 156.1,125.1 157.5,124.5C 156.941,126.679 156.274,128.846 155.5,131C 155.63,132.059 156.13,132.892 157,133.5C 158.472,129.514 160.639,126.18 163.5,123.5 Z"/></g>
<g><path style="opacity:1" fill="#52a470" d="M 199.5,131.5 C 194.433,136.906 191.099,143.239 189.5,150.5C 188.167,150.5 186.833,150.5 185.5,150.5C 185.5,148.5 185.5,146.5 185.5,144.5C 189.035,141.43 191.035,137.43 191.5,132.5C 192.5,132.5 193.5,132.5 194.5,132.5C 193.833,128.5 195.5,126.833 199.5,127.5C 199.5,128.833 199.5,130.167 199.5,131.5 Z"/></g>
<g><path style="opacity:1" fill="#4ea671" d="M 381.5,124.5 C 382.806,125.968 384.306,127.301 386,128.5C 388.339,131.844 390.172,135.51 391.5,139.5C 391.586,141.677 392.253,143.677 393.5,145.5C 393,145.833 392.5,146.167 392,146.5C 389.43,142.216 386.596,138.216 383.5,134.5C 382.594,131.518 381.26,128.685 379.5,126C 379.836,124.97 380.503,124.47 381.5,124.5 Z"/></g>
<g><path style="opacity:1" fill="#94bb9d" d="M 252.5,123.5 C 252.586,124.496 252.252,125.329 251.5,126C 248.6,126.943 246.267,128.61 244.5,131C 242.975,132.009 241.308,132.509 239.5,132.5C 239.52,134.143 238.853,135.476 237.5,136.5C 238.167,136.833 238.833,137.167 239.5,137.5C 242.129,135.965 244.796,134.632 247.5,133.5C 245.763,135.55 243.763,137.383 241.5,139C 238.793,139.328 236.126,138.995 233.5,138C 238.377,131.231 244.711,126.398 252.5,123.5 Z"/></g>
<g><path style="opacity:1" fill="#94c09e" d="M 336.5,129.5 C 341.341,132.32 345.675,135.82 349.5,140C 347.664,141.419 345.664,142.586 343.5,143.5C 340.479,141.146 337.812,138.479 335.5,135.5C 336.873,135.343 338.207,135.51 339.5,136C 340.676,138.301 342.01,138.634 343.5,137C 341.098,134.488 338.765,131.988 336.5,129.5 Z"/></g>
<g><path style="opacity:1" fill="#bfd8cc" d="M 430.5,136.5 C 432.28,137.99 432.946,139.99 432.5,142.5C 431.262,140.786 430.595,138.786 430.5,136.5 Z"/></g>
<g><path style="opacity:1" fill="#79a88b" d="M 199.5,131.5 C 196.418,137.999 193.085,144.332 189.5,150.5C 191.099,143.239 194.433,136.906 199.5,131.5 Z"/></g>
<g><path style="opacity:1" fill="#62a27e" d="M 383.5,134.5 C 386.596,138.216 389.43,142.216 392,146.5C 392.5,146.167 393,145.833 393.5,145.5C 392.253,143.677 391.586,141.677 391.5,139.5C 392.167,139.5 392.833,139.5 393.5,139.5C 394.787,142.406 395.787,145.406 396.5,148.5C 394.143,148.663 391.81,148.497 389.5,148C 387.501,145.745 386.168,143.245 385.5,140.5C 384.37,138.685 383.704,136.685 383.5,134.5 Z"/></g>
<g><path style="opacity:1" fill="#b5d1c3" d="M 423.5,140.5 C 424.167,141.167 424.833,141.833 425.5,142.5C 425.5,143.833 425.5,145.167 425.5,146.5C 423.926,144.898 423.259,142.898 423.5,140.5 Z"/></g>
<g><path style="opacity:1" fill="#5d9478" d="M 148.5,144.5 C 147.943,149.165 146.61,153.498 144.5,157.5C 145.057,152.835 146.39,148.502 148.5,144.5 Z"/></g>
<g><path style="opacity:1" fill="#d6e9dc" d="M 156.5,143.5 C 156.408,148.365 155.075,152.699 152.5,156.5C 153.057,151.835 154.39,147.502 156.5,143.5 Z"/></g>
<g><path style="opacity:1" fill="#679b7a" d="M 185.5,144.5 C 185.5,146.5 185.5,148.5 185.5,150.5C 186.833,150.5 188.167,150.5 189.5,150.5C 187.393,151.468 185.059,151.802 182.5,151.5C 183.088,148.937 184.088,146.604 185.5,144.5 Z"/></g>
<g><path style="opacity:1" fill="#a2c6b3" d="M 425.5,146.5 C 426.167,147.167 426.833,147.833 427.5,148.5C 427.5,149.833 427.5,151.167 427.5,152.5C 425.926,150.898 425.259,148.898 425.5,146.5 Z"/></g>
<g><path style="opacity:1" fill="#448563" d="M 429.5,134.5 C 430.338,134.842 430.672,135.508 430.5,136.5C 430.595,138.786 431.262,140.786 432.5,142.5C 434.3,148.034 435.633,153.701 436.5,159.5C 436.5,160.833 436.5,162.167 436.5,163.5C 434.542,155.024 431.876,146.691 428.5,138.5C 429.246,137.264 429.579,135.93 429.5,134.5 Z"/></g>
<g><path style="opacity:1" fill="#207f50" d="M 427.5,131.5 C 428.167,132.5 428.833,133.5 429.5,134.5C 429.579,135.93 429.246,137.264 428.5,138.5C 431.876,146.691 434.542,155.024 436.5,163.5C 436.5,163.833 436.5,164.167 436.5,164.5C 436.745,169.054 436.412,173.554 435.5,178C 436.994,182.36 437.66,186.86 437.5,191.5C 437.302,201.287 436.302,210.953 434.5,220.5C 433.883,220.389 433.383,220.056 433,219.5C 432.833,217 432.667,214.5 432.5,212C 435.415,193.196 434.915,174.696 431,156.5C 430.125,153.599 428.958,150.932 427.5,148.5C 426.833,147.833 426.167,147.167 425.5,146.5C 425.5,145.167 425.5,143.833 425.5,142.5C 425.66,140.801 425.494,139.134 425,137.5C 422.399,131.521 419.899,125.521 417.5,119.5C 417.833,118.833 418.167,118.167 418.5,117.5C 421.929,121.922 424.929,126.588 427.5,131.5 Z"/></g>
<g><path style="opacity:1" fill="#6ea08a" d="M 428.5,156.5 C 429.222,156.918 429.722,157.584 430,158.5C 430.497,161.146 430.664,163.813 430.5,166.5C 429.419,163.373 428.753,160.04 428.5,156.5 Z"/></g>
<g><path style="opacity:1" fill="#98bfaa" d="M 436.5,159.5 C 437.913,162.219 438.58,165.219 438.5,168.5C 437.833,167.167 437.167,165.833 436.5,164.5C 436.5,164.167 436.5,163.833 436.5,163.5C 436.5,162.167 436.5,160.833 436.5,159.5 Z"/></g>
<g><path style="opacity:1" fill="#237f51" d="M 150.5,162.5 C 150.5,163.167 150.5,163.833 150.5,164.5C 148.941,167.868 148.108,171.535 148,175.5C 146.485,194.141 147.818,212.474 152,230.5C 153.286,232.183 154.453,233.849 155.5,235.5C 157.074,237.102 157.741,239.102 157.5,241.5C 158.941,246.049 159.941,250.715 160.5,255.5C 159.178,255.67 158.011,255.337 157,254.5C 155.615,250.396 153.782,246.729 151.5,243.5C 151.482,240.264 150.482,237.597 148.5,235.5C 148.5,235.167 148.5,234.833 148.5,234.5C 145.154,220.227 143.154,205.727 142.5,191C 143.222,180.165 143.889,169.332 144.5,158.5C 144.5,158.167 144.5,157.833 144.5,157.5C 146.61,153.498 147.943,149.165 148.5,144.5C 148.5,144.167 148.5,143.833 148.5,143.5C 149.15,143.196 149.817,142.863 150.5,142.5C 151.133,139.505 152.133,136.672 153.5,134C 153.833,133.833 154.167,133.667 154.5,133.5C 156.177,138.903 155.343,143.903 152,148.5C 151.171,153.137 150.671,157.804 150.5,162.5 Z"/></g>
<g><path style="opacity:1" fill="#c7e6d7" d="M 287.5,163.5 C 286.676,189.761 286.176,216.095 286,242.5C 285.487,241.473 284.987,240.473 284.5,239.5C 284.836,213.984 285.836,188.65 287.5,163.5 Z"/></g>
<g><path style="opacity:1" fill="#458364" d="M 144.5,158.5 C 143.889,169.332 143.222,180.165 142.5,191C 143.154,205.727 145.154,220.227 148.5,234.5C 147.655,233.329 146.989,231.995 146.5,230.5C 146.59,227.848 145.924,225.515 144.5,223.5C 141.679,205.946 140.846,188.279 142,170.5C 142.528,166.301 143.361,162.301 144.5,158.5 Z"/></g>
<g><path style="opacity:1" fill="#dbf0e3" d="M 292.5,162.5 C 293.496,162.414 294.329,162.748 295,163.5C 295.333,188.167 295.667,212.833 296,237.5C 297.242,235.141 298.742,233.141 300.5,231.5C 299.424,234.648 298.091,237.648 296.5,240.5C 295.778,240.918 295.278,241.584 295,242.5C 294.601,242.272 294.435,241.938 294.5,241.5C 294.667,215.831 294.5,190.165 294,164.5C 293.283,163.956 292.783,163.289 292.5,162.5 Z"/></g>
<g><path style="opacity:1" fill="#b3cfbe" d="M 438.5,171.5 C 440.478,180.122 440.811,188.789 439.5,197.5C 439.416,188.822 439.083,180.155 438.5,171.5 Z"/></g>
<g><path style="opacity:1" fill="#92b8a7" d="M 229.5,199.5 C 232.495,199.294 235.162,199.96 237.5,201.5C 234.572,201.435 231.905,200.768 229.5,199.5 Z"/></g>
<g><path style="opacity:1" fill="#88ac9a" d="M 354.5,198.5 C 354.5,198.833 354.5,199.167 354.5,199.5C 354.167,199.5 353.833,199.5 353.5,199.5C 350.211,200.374 346.877,201.041 343.5,201.5C 346.799,199.517 350.466,198.517 354.5,198.5 Z"/></g>
<g><path style="opacity:1" fill="#3c835d" d="M 436.5,164.5 C 437.167,165.833 437.833,167.167 438.5,168.5C 438.5,169.5 438.5,170.5 438.5,171.5C 439.083,180.155 439.416,188.822 439.5,197.5C 439.5,198.167 439.5,198.833 439.5,199.5C 438.186,205.986 437.186,212.653 436.5,219.5C 435.659,221.379 435.325,223.379 435.5,225.5C 435.167,225.5 434.833,225.5 434.5,225.5C 434.5,223.833 434.5,222.167 434.5,220.5C 436.302,210.953 437.302,201.287 437.5,191.5C 437.66,186.86 436.994,182.36 435.5,178C 436.412,173.554 436.745,169.054 436.5,164.5 Z"/></g>
<g><path style="opacity:1" fill="#618f75" d="M 343.5,201.5 C 339.291,204.606 334.624,206.606 329.5,207.5C 333.66,204.422 338.327,202.422 343.5,201.5 Z"/></g>
<g><path style="opacity:1" fill="#d0e6d9" d="M 152.5,157.5 C 151.082,167.593 150.415,177.76 150.5,188C 150.46,200.59 151.46,213.09 153.5,225.5C 148.122,205.526 147.122,185.193 150.5,164.5C 150.5,163.833 150.5,163.167 150.5,162.5C 151.167,160.833 151.833,159.167 152.5,157.5 Z"/></g>
<g><path style="opacity:1" fill="#aecfbe" d="M 215.5,204.5 C 217.735,204.205 219.735,204.539 221.5,205.5C 219.833,205.5 218.167,205.5 216.5,205.5C 216.5,208.833 216.5,212.167 216.5,215.5C 215.518,212.038 215.185,208.371 215.5,204.5 Z"/></g>
<g><path style="opacity:1" fill="#f4f7f6" d="M 221.5,205.5 C 231.284,207.276 240.617,210.276 249.5,214.5C 258.043,219.704 265.71,226.037 272.5,233.5C 274.196,236.85 275.863,240.183 277.5,243.5C 281.059,252.513 283.392,261.846 284.5,271.5C 284.043,272.298 283.376,272.631 282.5,272.5C 270.866,259.531 258.866,246.864 246.5,234.5C 244.947,231.746 242.614,230.913 239.5,232C 238.199,233.616 238.199,235.116 239.5,236.5C 242.791,241.127 246.458,245.46 250.5,249.5C 251.08,251.749 252.413,253.415 254.5,254.5C 261.061,260.64 267.395,266.973 273.5,273.5C 273.833,274.167 274.167,274.833 274.5,275.5C 274.511,277.017 275.177,278.184 276.5,279C 275.207,279.49 273.873,279.657 272.5,279.5C 268.12,278.707 263.787,277.707 259.5,276.5C 233.194,264.973 218.86,244.64 216.5,215.5C 216.5,212.167 216.5,208.833 216.5,205.5C 218.167,205.5 219.833,205.5 221.5,205.5 Z"/></g>
<g><path style="opacity:1" fill="#f5f7f6" d="M 361.5,231.5 C 361.371,233.216 361.038,234.883 360.5,236.5C 360.5,236.833 360.5,237.167 360.5,237.5C 359.326,238.514 358.66,239.847 358.5,241.5C 357.094,241.973 356.427,242.973 356.5,244.5C 355.89,245.391 355.557,246.391 355.5,247.5C 354.094,247.973 353.427,248.973 353.5,250.5C 351.75,251.659 350.75,253.326 350.5,255.5C 346.833,258.5 343.5,261.833 340.5,265.5C 338.246,266.124 336.579,267.457 335.5,269.5C 333.566,270.11 331.899,271.11 330.5,272.5C 323.572,275.956 316.239,278.289 308.5,279.5C 307.127,279.657 305.793,279.49 304.5,279C 306.141,277.871 307.141,276.371 307.5,274.5C 309.167,272.167 311.167,270.167 313.5,268.5C 315.914,267.089 317.581,265.089 318.5,262.5C 318.5,262.167 318.5,261.833 318.5,261.5C 324.5,254.833 330.833,248.5 337.5,242.5C 339.587,241.415 340.92,239.749 341.5,237.5C 343.023,235.414 342.69,233.748 340.5,232.5C 336.387,230.568 333.72,231.902 332.5,236.5C 327.792,240.207 323.792,244.54 320.5,249.5C 314.481,254.552 309.148,260.219 304.5,266.5C 302.413,267.585 301.08,269.251 300.5,271.5C 298.833,272.5 297.5,273.833 296.5,275.5C 295.539,273.735 295.205,271.735 295.5,269.5C 295.704,266.482 296.037,263.482 296.5,260.5C 299.704,251.25 303.704,242.25 308.5,233.5C 308.833,233.5 309.167,233.5 309.5,233.5C 311.587,232.415 312.92,230.749 313.5,228.5C 315.294,226.203 317.294,224.037 319.5,222C 324.477,218.02 329.811,214.853 335.5,212.5C 337.527,212.662 339.527,212.495 341.5,212C 345.441,209.861 349.441,208.028 353.5,206.5C 353.833,206.5 354.167,206.5 354.5,206.5C 357.482,206.037 360.482,205.704 363.5,205.5C 363.328,214.208 362.661,222.875 361.5,231.5 Z"/></g>
<g><path style="opacity:1" fill="#7da38f" d="M 359.5,197.5 C 363.634,196.515 367.968,196.182 372.5,196.5C 372.666,205.173 372.5,213.84 372,222.5C 371.79,224.058 371.29,225.391 370.5,226.5C 371.36,216.861 371.693,207.194 371.5,197.5C 367.5,197.5 363.5,197.5 359.5,197.5 Z"/></g>
<g><path style="opacity:1" fill="#407e5f" d="M 150.5,164.5 C 147.122,185.193 148.122,205.526 153.5,225.5C 154.374,228.789 155.041,232.123 155.5,235.5C 154.453,233.849 153.286,232.183 152,230.5C 147.818,212.474 146.485,194.141 148,175.5C 148.108,171.535 148.941,167.868 150.5,164.5 Z"/></g>
<g><path style="opacity:1" fill="#c5ded1" d="M 365.5,204.5 C 365.249,213.786 363.916,222.786 361.5,231.5C 362.661,222.875 363.328,214.208 363.5,205.5C 360.482,205.704 357.482,206.037 354.5,206.5C 357.845,204.783 361.511,204.116 365.5,204.5 Z"/></g>
<g><path style="opacity:1" fill="#9fc4ae" d="M 439.5,199.5 C 439.365,205.181 439.032,210.848 438.5,216.5C 437.833,217.5 437.167,218.5 436.5,219.5C 437.186,212.653 438.186,205.986 439.5,199.5 Z"/></g>
<g><path style="opacity:1" fill="#2b7e56" d="M 353.5,199.5 C 352.402,200.397 352.402,201.23 353.5,202C 352.833,202.667 352.167,203.333 351.5,204C 356.299,203.324 360.965,203.49 365.5,204.5C 361.511,204.116 357.845,204.783 354.5,206.5C 354.167,206.5 353.833,206.5 353.5,206.5C 347.085,207.527 341.085,209.527 335.5,212.5C 331.099,211.87 327.432,213.203 324.5,216.5C 323.914,216.291 323.414,215.957 323,215.5C 318.987,218.683 315.154,222.017 311.5,225.5C 310.691,227.071 310.357,228.738 310.5,230.5C 309.89,231.391 309.557,232.391 309.5,233.5C 309.167,233.5 308.833,233.5 308.5,233.5C 301.621,237.959 299.954,236.292 303.5,228.5C 303.5,227.833 303.833,227.5 304.5,227.5C 307.573,225.431 309.906,222.764 311.5,219.5C 313.828,217.7 316.495,216.533 319.5,216C 323.038,213.287 326.371,210.453 329.5,207.5C 334.624,206.606 339.291,204.606 343.5,201.5C 346.877,201.041 350.211,200.374 353.5,199.5 Z"/></g>
<g><path style="opacity:1" fill="#b5cfc0" d="M 353.5,206.5 C 349.441,208.028 345.441,209.861 341.5,212C 339.527,212.495 337.527,212.662 335.5,212.5C 341.085,209.527 347.085,207.527 353.5,206.5 Z"/></g>
<g><path style="opacity:1" fill="#2f8059" d="M 245.5,205.5 C 251.192,207.049 256.192,209.716 260.5,213.5C 261.028,214.721 261.695,215.887 262.5,217C 267.329,220.551 271.829,224.385 276,228.5C 278.139,232.032 278.973,235.698 278.5,239.5C 277.124,236.79 275.124,234.79 272.5,233.5C 265.71,226.037 258.043,219.704 249.5,214.5C 249.719,213.325 249.386,212.325 248.5,211.5C 244.441,209.234 240.107,207.734 235.5,207C 234.833,206.333 234.167,205.667 233.5,205C 237.359,204.369 241.359,204.536 245.5,205.5 Z"/></g>
<g><path style="opacity:1" fill="#528b70" d="M 329.5,207.5 C 326.371,210.453 323.038,213.287 319.5,216C 316.495,216.533 313.828,217.7 311.5,219.5C 314.576,216.448 317.91,213.614 321.5,211C 324.071,209.546 326.738,208.38 329.5,207.5 Z"/></g>
<g><path style="opacity:1" fill="#377d58" d="M 359.5,197.5 C 363.5,197.5 367.5,197.5 371.5,197.5C 371.693,207.194 371.36,216.861 370.5,226.5C 370.5,227.167 370.5,227.833 370.5,228.5C 369.833,229.167 369.167,229.833 368.5,230.5C 368.708,228.08 368.374,225.747 367.5,223.5C 369.37,219.951 370.37,216.117 370.5,212C 370.422,207.93 370.089,203.764 369.5,199.5C 364.524,198.362 359.524,198.362 354.5,199.5C 354.5,199.167 354.5,198.833 354.5,198.5C 356.042,197.699 357.708,197.366 359.5,197.5 Z"/></g>
<g><path style="opacity:1" fill="#ddf0e7" d="M 208.5,200.5 C 208.371,209.567 209.038,218.567 210.5,227.5C 209.207,226.158 208.374,224.491 208,222.5C 207.178,214.988 207.345,207.655 208.5,200.5 Z"/></g>
<g><path style="opacity:1" fill="#357959" d="M 335.5,212.5 C 329.811,214.853 324.477,218.02 319.5,222C 317.294,224.037 315.294,226.203 313.5,228.5C 312.5,229.167 311.5,229.833 310.5,230.5C 310.357,228.738 310.691,227.071 311.5,225.5C 315.154,222.017 318.987,218.683 323,215.5C 323.414,215.957 323.914,216.291 324.5,216.5C 327.432,213.203 331.099,211.87 335.5,212.5 Z"/></g>
<g><path style="opacity:1" fill="#68957e" d="M 311.5,219.5 C 309.906,222.764 307.573,225.431 304.5,227.5C 306.094,224.236 308.427,221.569 311.5,219.5 Z"/></g>
<g><path style="opacity:1" fill="#278353" d="M 368.5,230.5 C 367.27,232.297 366.604,234.297 366.5,236.5C 364.92,238.927 363.086,241.261 361,243.5C 360.505,241.527 360.338,239.527 360.5,237.5C 360.5,237.167 360.5,236.833 360.5,236.5C 361.117,236.389 361.617,236.056 362,235.5C 365.495,225.243 366.661,214.909 365.5,204.5C 360.965,203.49 356.299,203.324 351.5,204C 352.167,203.333 352.833,202.667 353.5,202C 352.402,201.23 352.402,200.397 353.5,199.5C 353.833,199.5 354.167,199.5 354.5,199.5C 359.524,198.362 364.524,198.362 369.5,199.5C 370.089,203.764 370.422,207.93 370.5,212C 370.37,216.117 369.37,219.951 367.5,223.5C 368.374,225.747 368.708,228.08 368.5,230.5 Z"/></g>
<g><path style="opacity:1" fill="#387d59" d="M 427.5,148.5 C 428.958,150.932 430.125,153.599 431,156.5C 434.915,174.696 435.415,193.196 432.5,212C 432.667,214.5 432.833,217 433,219.5C 433.383,220.056 433.883,220.389 434.5,220.5C 434.5,222.167 434.5,223.833 434.5,225.5C 434.405,227.786 433.738,229.786 432.5,231.5C 432.823,227.774 432.489,224.107 431.5,220.5C 430.818,221.243 430.151,221.909 429.5,222.5C 430.244,218.881 430.577,215.215 430.5,211.5C 431.698,196.343 431.698,181.343 430.5,166.5C 430.664,163.813 430.497,161.146 430,158.5C 429.722,157.584 429.222,156.918 428.5,156.5C 428.768,154.901 428.434,153.568 427.5,152.5C 427.5,151.167 427.5,149.833 427.5,148.5 Z"/></g>
<g><path style="opacity:1" fill="#5d9378" d="M 430.5,211.5 C 430.577,215.215 430.244,218.881 429.5,222.5C 428.434,228.541 426.434,234.207 423.5,239.5C 425.859,230.063 428.193,220.73 430.5,211.5 Z"/></g>
<g><path style="opacity:1" fill="#b9d6c6" d="M 144.5,223.5 C 145.924,225.515 146.59,227.848 146.5,230.5C 145.076,228.485 144.41,226.152 144.5,223.5 Z"/></g>
<g><path style="opacity:1" fill="#53876c" d="M 365.5,204.5 C 366.661,214.909 365.495,225.243 362,235.5C 361.617,236.056 361.117,236.389 360.5,236.5C 361.038,234.883 361.371,233.216 361.5,231.5C 363.916,222.786 365.249,213.786 365.5,204.5 Z"/></g>
<g><path style="opacity:1" fill="#93b8a3" d="M 434.5,225.5 C 434.833,225.5 435.167,225.5 435.5,225.5C 434.943,230.165 433.61,234.498 431.5,238.5C 431.674,236.139 432.007,233.806 432.5,231.5C 433.738,229.786 434.405,227.786 434.5,225.5 Z"/></g>
<g><path style="opacity:1" fill="#c5dfcf" d="M 210.5,228.5 C 212.074,231.907 213.074,235.573 213.5,239.5C 211.517,236.201 210.517,232.534 210.5,228.5 Z"/></g>
<g><path style="opacity:1" fill="#b3d3c3" d="M 313.5,228.5 C 312.92,230.749 311.587,232.415 309.5,233.5C 309.557,232.391 309.89,231.391 310.5,230.5C 311.5,229.833 312.5,229.167 313.5,228.5 Z"/></g>
<g><path style="opacity:1" fill="#507966" d="M 246.5,234.5 C 244.236,233.781 241.903,233.448 239.5,233.5C 239.5,234.5 239.5,235.5 239.5,236.5C 238.199,235.116 238.199,233.616 239.5,232C 242.614,230.913 244.947,231.746 246.5,234.5 Z"/></g>
<g><path style="opacity:1" fill="#daeae2" d="M 438.5,216.5 C 437.228,223.133 436.061,229.799 435,236.5C 432.14,243.083 428.973,249.416 425.5,255.5C 426.714,249.522 428.714,243.855 431.5,238.5C 433.61,234.498 434.943,230.165 435.5,225.5C 435.325,223.379 435.659,221.379 436.5,219.5C 437.167,218.5 437.833,217.5 438.5,216.5 Z"/></g>
<g><path style="opacity:1" fill="#6d937e" d="M 340.5,232.5 C 339.127,232.343 337.793,232.51 336.5,233C 335.295,234.376 333.962,235.542 332.5,236.5C 333.72,231.902 336.387,230.568 340.5,232.5 Z"/></g>
<g><path style="opacity:1" fill="#5a8f74" d="M 370.5,228.5 C 369.34,232.647 368.007,236.647 366.5,240.5C 366.5,239.167 366.5,237.833 366.5,236.5C 366.604,234.297 367.27,232.297 368.5,230.5C 369.167,229.833 369.833,229.167 370.5,228.5 Z"/></g>
<g><path style="opacity:1" fill="#3c805e" d="M 229.5,199.5 C 231.905,200.768 234.572,201.435 237.5,201.5C 240.404,202.285 243.07,203.619 245.5,205.5C 241.359,204.536 237.359,204.369 233.5,205C 234.167,205.667 234.833,206.333 235.5,207C 240.107,207.734 244.441,209.234 248.5,211.5C 249.386,212.325 249.719,213.325 249.5,214.5C 240.617,210.276 231.284,207.276 221.5,205.5C 219.735,204.539 217.735,204.205 215.5,204.5C 215.185,208.371 215.518,212.038 216.5,215.5C 218.86,244.64 233.194,264.973 259.5,276.5C 256.834,276.067 254.168,275.567 251.5,275C 246.954,271.559 241.954,268.893 236.5,267C 237.205,265.443 236.539,264.277 234.5,263.5C 233.386,264.723 233.219,266.056 234,267.5C 236.011,269.344 237.845,271.344 239.5,273.5C 237.405,272.588 235.405,271.421 233.5,270C 231.712,267.816 230.046,265.649 228.5,263.5C 224.925,259.347 221.591,255.014 218.5,250.5C 217.07,246.646 215.403,242.979 213.5,239.5C 213.074,235.573 212.074,231.907 210.5,228.5C 210.5,228.167 210.5,227.833 210.5,227.5C 209.038,218.567 208.371,209.567 208.5,200.5C 208.33,199.178 208.663,198.011 209.5,197C 216.515,196.073 223.182,196.906 229.5,199.5 Z"/></g>
<g><path style="opacity:1" fill="#298556" d="M 215.5,204.5 C 214.195,206.397 213.529,208.731 213.5,211.5C 213.567,219.816 214.9,227.816 217.5,235.5C 216.325,235.719 215.325,235.386 214.5,234.5C 210.956,223.142 209.622,211.475 210.5,199.5C 217.067,199.595 223.734,200.428 230.5,202C 228.919,202.707 227.419,203.54 226,204.5C 222.399,203.18 218.899,203.18 215.5,204.5 Z"/></g>
<g><path style="opacity:1" fill="#377a5b" d="M 303.5,228.5 C 299.954,236.292 301.621,237.959 308.5,233.5C 303.704,242.25 299.704,251.25 296.5,260.5C 296.5,259.167 296.5,257.833 296.5,256.5C 296.833,251.963 298.166,247.796 300.5,244C 298.456,243.502 297.122,242.335 296.5,240.5C 298.091,237.648 299.424,234.648 300.5,231.5C 301.167,230.167 302.167,229.167 303.5,228.5 Z"/></g>
<g><path style="opacity:1" fill="#428261" d="M 292.5,162.5 C 292.783,163.289 293.283,163.956 294,164.5C 294.5,190.165 294.667,215.831 294.5,241.5C 292.952,241.179 292.285,240.179 292.5,238.5C 292.241,214.919 292.074,191.253 292,167.5C 291.29,166.027 290.124,165.36 288.5,165.5C 288.617,189.79 288.617,213.79 288.5,237.5C 288.322,240.216 287.822,242.883 287,245.5C 285.467,245.056 283.967,244.723 282.5,244.5C 282.667,250.537 283.834,256.537 286,262.5C 286.499,266.486 286.666,270.486 286.5,274.5C 286.167,274.5 285.833,274.5 285.5,274.5C 285.354,263.409 282.688,253.076 277.5,243.5C 275.863,240.183 274.196,236.85 272.5,233.5C 275.124,234.79 277.124,236.79 278.5,239.5C 278.973,235.698 278.139,232.032 276,228.5C 271.829,224.385 267.329,220.551 262.5,217C 261.695,215.887 261.028,214.721 260.5,213.5C 262.167,214.167 263.833,214.833 265.5,215.5C 268.888,219.554 272.554,223.221 276.5,226.5C 279.417,230.666 282.084,234.999 284.5,239.5C 284.987,240.473 285.487,241.473 286,242.5C 286.176,216.095 286.676,189.761 287.5,163.5C 288.919,162.549 290.585,162.216 292.5,162.5 Z"/></g>
<g><path style="opacity:1" fill="#dbe9e3" d="M 265.5,215.5 C 268.889,217.14 272.055,219.14 275,221.5C 275.333,221.167 275.667,220.833 276,220.5C 276.495,222.473 276.662,224.473 276.5,226.5C 272.554,223.221 268.888,219.554 265.5,215.5 Z"/></g>
<g><path style="opacity:1" fill="#207d4f" d="M 292.5,238.5 C 291.883,238.611 291.383,238.944 291,239.5C 290.583,238.244 289.75,237.577 288.5,237.5C 288.617,213.79 288.617,189.79 288.5,165.5C 290.124,165.36 291.29,166.027 292,167.5C 292.074,191.253 292.241,214.919 292.5,238.5 Z"/></g>
<g><path style="opacity:1" fill="#b1d3c4" d="M 341.5,237.5 C 340.92,239.749 339.587,241.415 337.5,242.5C 338.08,240.251 339.413,238.585 341.5,237.5 Z"/></g>
<g><path style="opacity:1" fill="#63907c" d="M 148.5,235.5 C 150.482,237.597 151.482,240.264 151.5,243.5C 149.903,241.152 148.903,238.486 148.5,235.5 Z"/></g>
<g><path style="opacity:1" fill="#63997f" d="M 423.5,239.5 C 423.657,240.873 423.49,242.207 423,243.5C 421.918,245.618 420.751,247.618 419.5,249.5C 419.77,245.642 421.103,242.309 423.5,239.5 Z"/></g>
<g><path style="opacity:1" fill="#97b9a7" d="M 358.5,241.5 C 358.573,243.027 357.906,244.027 356.5,244.5C 356.427,242.973 357.094,241.973 358.5,241.5 Z"/></g>
<g><path style="opacity:1" fill="#397d5b" d="M 340.5,232.5 C 342.69,233.748 343.023,235.414 341.5,237.5C 339.413,238.585 338.08,240.251 337.5,242.5C 330.833,248.5 324.5,254.833 318.5,261.5C 319.413,259.914 319.413,258.414 318.5,257C 322.263,255.514 324.929,252.847 326.5,249C 324.455,248.51 322.455,248.677 320.5,249.5C 323.792,244.54 327.792,240.207 332.5,236.5C 333.962,235.542 335.295,234.376 336.5,233C 337.793,232.51 339.127,232.343 340.5,232.5 Z"/></g>
<g><path style="opacity:1" fill="#337e58" d="M 366.5,236.5 C 366.5,237.833 366.5,239.167 366.5,240.5C 363.811,247.544 360.311,254.21 356,260.5C 352.324,264.009 348.824,267.676 345.5,271.5C 343.251,272.08 341.585,273.413 340.5,275.5C 338.326,275.75 336.659,276.75 335.5,278.5C 333.847,278.66 332.514,279.326 331.5,280.5C 325.563,282.701 319.563,284.701 313.5,286.5C 314.97,285.022 316.637,283.689 318.5,282.5C 323.058,282.28 327.058,280.78 330.5,278C 328.846,277.392 327.179,276.892 325.5,276.5C 327.167,275.167 328.833,273.833 330.5,272.5C 331.899,271.11 333.566,270.11 335.5,269.5C 337.795,268.864 339.461,267.531 340.5,265.5C 341.552,265.649 342.552,265.483 343.5,265C 346.076,261.937 348.409,258.771 350.5,255.5C 350.75,253.326 351.75,251.659 353.5,250.5C 354.906,250.027 355.573,249.027 355.5,247.5C 355.557,246.391 355.89,245.391 356.5,244.5C 357.906,244.027 358.573,243.027 358.5,241.5C 358.66,239.847 359.326,238.514 360.5,237.5C 360.338,239.527 360.505,241.527 361,243.5C 363.086,241.261 364.92,238.927 366.5,236.5 Z"/></g>
<g><path style="opacity:1" fill="#cfe4db" d="M 213.5,239.5 C 215.403,242.979 217.07,246.646 218.5,250.5C 216.288,248.223 214.288,245.723 212.5,243C 213.337,241.989 213.67,240.822 213.5,239.5 Z"/></g>
<g><path style="opacity:1" fill="#337e5b" d="M 246.5,234.5 C 258.866,246.864 270.866,259.531 282.5,272.5C 282.833,273.167 283.167,273.833 283.5,274.5C 283.833,275.167 284.167,275.833 284.5,276.5C 283.883,276.611 283.383,276.944 283,277.5C 282.722,276.584 282.222,275.918 281.5,275.5C 281.306,273.088 279.973,272.088 277.5,272.5C 277.616,269.09 275.95,267.756 272.5,268.5C 272.629,270.216 272.962,271.883 273.5,273.5C 267.395,266.973 261.061,260.64 254.5,254.5C 253.92,252.251 252.587,250.585 250.5,249.5C 246.458,245.46 242.791,241.127 239.5,236.5C 239.5,235.5 239.5,234.5 239.5,233.5C 241.903,233.448 244.236,233.781 246.5,234.5 Z"/></g>
<g><path style="opacity:1" fill="#7fa895" d="M 355.5,247.5 C 355.573,249.027 354.906,250.027 353.5,250.5C 353.427,248.973 354.094,247.973 355.5,247.5 Z"/></g>
<g><path style="opacity:1" fill="#aac5b7" d="M 250.5,249.5 C 252.587,250.585 253.92,252.251 254.5,254.5C 252.413,253.415 251.08,251.749 250.5,249.5 Z"/></g>
<g><path style="opacity:1" fill="#d2e6de" d="M 152.5,248.5 C 154.677,252.333 156.677,256.333 158.5,260.5C 157.504,260.586 156.671,260.252 156,259.5C 154.705,255.785 153.538,252.118 152.5,248.5 Z"/></g>
<g><path style="opacity:1" fill="#2b7d53" d="M 432.5,231.5 C 432.007,233.806 431.674,236.139 431.5,238.5C 428.714,243.855 426.714,249.522 425.5,255.5C 423.069,257.046 421.736,259.379 421.5,262.5C 419.75,263.659 418.75,265.326 418.5,267.5C 417.094,267.973 416.427,268.973 416.5,270.5C 415.833,270.833 415.167,271.167 414.5,271.5C 411.31,269.74 410.81,267.407 413,264.5C 413.333,264.833 413.667,265.167 414,265.5C 415.149,262.607 415.649,259.607 415.5,256.5C 416.079,253.669 417.412,251.336 419.5,249.5C 420.751,247.618 421.918,245.618 423,243.5C 423.49,242.207 423.657,240.873 423.5,239.5C 426.434,234.207 428.434,228.541 429.5,222.5C 430.151,221.909 430.818,221.243 431.5,220.5C 432.489,224.107 432.823,227.774 432.5,231.5 Z"/></g>
<g><path style="opacity:1" fill="#397d5f" d="M 157.5,241.5 C 161.544,248.583 165.377,255.916 169,263.5C 172.663,269.321 176.497,274.988 180.5,280.5C 178.9,279.748 177.4,278.748 176,277.5C 174.701,277.966 173.201,277.966 171.5,277.5C 173.539,278.911 174.539,280.911 174.5,283.5C 168.387,276.385 163.054,268.719 158.5,260.5C 156.677,256.333 154.677,252.333 152.5,248.5C 151.962,246.883 151.629,245.216 151.5,243.5C 153.782,246.729 155.615,250.396 157,254.5C 158.011,255.337 159.178,255.67 160.5,255.5C 159.941,250.715 158.941,246.049 157.5,241.5 Z"/></g>
<g><path style="opacity:1" fill="#268056" d="M 318.5,261.5 C 316.019,261.323 314.186,262.323 313,264.5C 313.236,259.372 315.569,255.372 320,252.5C 320.483,251.552 320.649,250.552 320.5,249.5C 322.455,248.677 324.455,248.51 326.5,249C 324.929,252.847 322.263,255.514 318.5,257C 319.413,258.414 319.413,259.914 318.5,261.5 Z"/></g>
<g><path style="opacity:1" fill="#b8d7c6" d="M 425.5,255.5 C 424.921,258.331 423.588,260.664 421.5,262.5C 421.736,259.379 423.069,257.046 425.5,255.5 Z"/></g>
<g><path style="opacity:1" fill="#63957c" d="M 350.5,255.5 C 348.409,258.771 346.076,261.937 343.5,265C 342.552,265.483 341.552,265.649 340.5,265.5C 343.5,261.833 346.833,258.5 350.5,255.5 Z"/></g>
<g><path style="opacity:1" fill="#278354" d="M 228.5,263.5 C 226.795,259.812 225.129,256.146 223.5,252.5C 224.833,252.5 226.167,252.5 227.5,252.5C 227.277,255.114 228.444,256.781 231,257.5C 231.251,259.433 231.751,261.266 232.5,263C 231.207,263.49 229.873,263.657 228.5,263.5 Z"/></g>
<g><path style="opacity:1" fill="#d6e9df" d="M 277.5,243.5 C 282.688,253.076 285.354,263.409 285.5,274.5C 284.833,274.5 284.167,274.5 283.5,274.5C 283.167,273.833 282.833,273.167 282.5,272.5C 283.376,272.631 284.043,272.298 284.5,271.5C 283.392,261.846 281.059,252.513 277.5,243.5 Z"/></g>
<g><path style="opacity:1" fill="#228059" d="M 171.5,277.5 C 169.656,276.085 168.989,274.419 169.5,272.5C 168.372,271.738 167.205,271.071 166,270.5C 165.74,268.382 164.74,266.716 163,265.5C 161.872,263.655 161.372,261.655 161.5,259.5C 162.978,259.238 164.311,259.571 165.5,260.5C 166.923,265.18 169.256,269.347 172.5,273C 171.852,274.44 171.519,275.94 171.5,277.5 Z"/></g>
<g><path style="opacity:1" fill="#3a7d5c" d="M 320.5,249.5 C 320.649,250.552 320.483,251.552 320,252.5C 315.569,255.372 313.236,259.372 313,264.5C 314.186,262.323 316.019,261.323 318.5,261.5C 318.5,261.833 318.5,262.167 318.5,262.5C 316.086,263.911 314.419,265.911 313.5,268.5C 311.167,270.167 309.167,272.167 307.5,274.5C 306.167,275.5 304.833,276.5 303.5,277.5C 303.5,276.167 303.5,274.833 303.5,273.5C 304.5,273.5 305.5,273.5 306.5,273.5C 307.677,270.962 309.344,268.629 311.5,266.5C 311.167,266.167 310.833,265.833 310.5,265.5C 308.466,266.559 306.466,267.559 304.5,268.5C 304.5,267.833 304.5,267.167 304.5,266.5C 309.148,260.219 314.481,254.552 320.5,249.5 Z"/></g>
<g><path style="opacity:1" fill="#b2d1c1" d="M 318.5,262.5 C 317.581,265.089 315.914,267.089 313.5,268.5C 314.419,265.911 316.086,263.911 318.5,262.5 Z"/></g>
<g><path style="opacity:1" fill="#6a9d86" d="M 340.5,265.5 C 339.461,267.531 337.795,268.864 335.5,269.5C 336.579,267.457 338.246,266.124 340.5,265.5 Z"/></g>
<g><path style="opacity:1" fill="#61927d" d="M 410.5,265.5 C 410.408,267.848 409.408,269.514 407.5,270.5C 407.75,268.326 408.75,266.659 410.5,265.5 Z"/></g>
<g><path style="opacity:1" fill="#377c5c" d="M 415.5,256.5 C 415.649,259.607 415.149,262.607 414,265.5C 413.667,265.167 413.333,264.833 413,264.5C 410.81,267.407 411.31,269.74 414.5,271.5C 414.167,272.833 413.833,274.167 413.5,275.5C 411.738,276.262 410.738,277.596 410.5,279.5C 410.167,279.5 409.833,279.5 409.5,279.5C 412.513,269.349 410.847,268.849 404.5,278C 403.552,278.483 402.552,278.649 401.5,278.5C 403.016,275.467 405.016,272.8 407.5,270.5C 409.408,269.514 410.408,267.848 410.5,265.5C 412.438,262.621 414.105,259.621 415.5,256.5 Z"/></g>
<g><path style="opacity:1" fill="#a0c2b2" d="M 418.5,267.5 C 418.573,269.027 417.906,270.027 416.5,270.5C 416.427,268.973 417.094,267.973 418.5,267.5 Z"/></g>
<g><path style="opacity:1" fill="#c1d8cc" d="M 345.5,271.5 C 344.415,273.587 342.749,274.92 340.5,275.5C 341.585,273.413 343.251,272.08 345.5,271.5 Z"/></g>
<g><path style="opacity:1" fill="#c3dbce" d="M 416.5,270.5 C 416.408,272.848 415.408,274.514 413.5,275.5C 413.833,274.167 414.167,272.833 414.5,271.5C 415.167,271.167 415.833,270.833 416.5,270.5 Z"/></g>
<g><path style="opacity:1" fill="#84c5a2" d="M 283.5,274.5 C 284.167,274.5 284.833,274.5 285.5,274.5C 285.833,274.5 286.167,274.5 286.5,274.5C 286.5,275.833 285.833,276.5 284.5,276.5C 284.167,275.833 283.833,275.167 283.5,274.5 Z"/></g>
<g><path style="opacity:1" fill="#2e8159" d="M 296.5,256.5 C 296.5,257.833 296.5,259.167 296.5,260.5C 296.037,263.482 295.704,266.482 295.5,269.5C 294.203,271.693 294.203,274.027 295.5,276.5C 296.107,276.376 296.44,276.043 296.5,275.5C 297.5,273.833 298.833,272.5 300.5,271.5C 301.833,270.5 303.167,269.5 304.5,268.5C 306.466,267.559 308.466,266.559 310.5,265.5C 310.833,265.833 311.167,266.167 311.5,266.5C 309.344,268.629 307.677,270.962 306.5,273.5C 305.5,273.5 304.5,273.5 303.5,273.5C 303.5,274.833 303.5,276.167 303.5,277.5C 303.167,278.833 302.833,280.167 302.5,281.5C 301.312,280.316 300.145,280.316 299,281.5C 299,280.167 299,278.833 299,277.5C 297.598,279.973 296.098,279.973 294.5,277.5C 293.543,270.836 293.71,264.169 295,257.5C 295.383,256.944 295.883,256.611 296.5,256.5 Z"/></g>
<g><path style="opacity:1" fill="#7fb599" d="M 295.5,269.5 C 295.205,271.735 295.539,273.735 296.5,275.5C 296.44,276.043 296.107,276.376 295.5,276.5C 294.203,274.027 294.203,271.693 295.5,269.5 Z"/></g>
<g><path style="opacity:1" fill="#73a28b" d="M 304.5,266.5 C 304.5,267.167 304.5,267.833 304.5,268.5C 303.167,269.5 301.833,270.5 300.5,271.5C 301.08,269.251 302.413,267.585 304.5,266.5 Z"/></g>
<g><path style="opacity:1" fill="#228052" d="M 409.5,279.5 C 406.311,281.691 403.144,284.024 400,286.5C 399.5,286.167 399,285.833 398.5,285.5C 399.127,284.583 399.461,283.583 399.5,282.5C 400.6,281.395 401.267,280.062 401.5,278.5C 402.552,278.649 403.552,278.483 404.5,278C 410.847,268.849 412.513,269.349 409.5,279.5 Z"/></g>
<g><path style="opacity:1" fill="#3f7d5e" d="M 239.5,273.5 C 243.962,275.064 248.296,277.231 252.5,280C 255.101,280.92 257.768,281.587 260.5,282C 262.324,282.66 263.657,283.827 264.5,285.5C 257.354,283.293 250.354,280.627 243.5,277.5C 241.861,276.527 240.527,275.194 239.5,273.5 Z"/></g>
<g><path style="opacity:1" fill="#278056" d="M 259.5,276.5 C 263.787,277.707 268.12,278.707 272.5,279.5C 273.919,280.451 275.585,280.784 277.5,280.5C 277.727,278.067 276.727,276.401 274.5,275.5C 274.167,274.833 273.833,274.167 273.5,273.5C 272.962,271.883 272.629,270.216 272.5,268.5C 275.95,267.756 277.616,269.09 277.5,272.5C 279.973,272.088 281.306,273.088 281.5,275.5C 280.744,277.613 280.577,279.613 281,281.5C 278.051,280.733 275.884,281.9 274.5,285C 277.3,286.232 280.3,286.899 283.5,287C 284.056,287.383 284.389,287.883 284.5,288.5C 277.756,287.789 271.09,286.789 264.5,285.5C 263.657,283.827 262.324,282.66 260.5,282C 257.768,281.587 255.101,280.92 252.5,280C 248.296,277.231 243.962,275.064 239.5,273.5C 237.845,271.344 236.011,269.344 234,267.5C 233.219,266.056 233.386,264.723 234.5,263.5C 236.539,264.277 237.205,265.443 236.5,267C 241.954,268.893 246.954,271.559 251.5,275C 254.168,275.567 256.834,276.067 259.5,276.5 Z"/></g>
<g><path style="opacity:1" fill="#558c71" d="M 330.5,272.5 C 328.833,273.833 327.167,275.167 325.5,276.5C 321.411,277.709 317.411,279.209 313.5,281C 310.183,281.498 306.85,281.665 303.5,281.5C 305.167,280.833 306.833,280.167 308.5,279.5C 316.239,278.289 323.572,275.956 330.5,272.5 Z"/></g>
<g><path style="opacity:1" fill="#c1d6cb" d="M 340.5,275.5 C 339.514,277.408 337.848,278.408 335.5,278.5C 336.659,276.75 338.326,275.75 340.5,275.5 Z"/></g>
<g><path style="opacity:1" fill="#a9cbba" d="M 413.5,275.5 C 413.262,277.404 412.262,278.738 410.5,279.5C 410.738,277.596 411.738,276.262 413.5,275.5 Z"/></g>
<g><path style="opacity:1" fill="#b3d7c4" d="M 274.5,275.5 C 276.727,276.401 277.727,278.067 277.5,280.5C 275.585,280.784 273.919,280.451 272.5,279.5C 273.873,279.657 275.207,279.49 276.5,279C 275.177,278.184 274.511,277.017 274.5,275.5 Z"/></g>
<g><path style="opacity:1" fill="#b0d3c1" d="M 307.5,274.5 C 307.141,276.371 306.141,277.871 304.5,279C 305.793,279.49 307.127,279.657 308.5,279.5C 306.833,280.167 305.167,280.833 303.5,281.5C 303.167,281.5 302.833,281.5 302.5,281.5C 302.833,280.167 303.167,278.833 303.5,277.5C 304.833,276.5 306.167,275.5 307.5,274.5 Z"/></g>
<g><path style="opacity:1" fill="#779c88" d="M 401.5,278.5 C 401.267,280.062 400.6,281.395 399.5,282.5C 398.833,282.833 398.167,283.167 397.5,283.5C 398.08,281.251 399.413,279.585 401.5,278.5 Z"/></g>
<g><path style="opacity:1" fill="#337e58" d="M 325.5,276.5 C 327.179,276.892 328.846,277.392 330.5,278C 327.058,280.78 323.058,282.28 318.5,282.5C 316.637,283.689 314.97,285.022 313.5,286.5C 312.391,286.557 311.391,286.89 310.5,287.5C 305.167,288.167 299.833,288.833 294.5,289.5C 293.833,289.5 293.5,289.833 293.5,290.5C 292.787,295.368 292.121,300.368 291.5,305.5C 292.451,310.77 292.785,316.103 292.5,321.5C 290.97,318.305 290.304,314.805 290.5,311C 290.591,307.802 290.924,304.635 291.5,301.5C 291.547,300 290.881,299 289.5,298.5C 288.823,320.232 288.156,341.898 287.5,363.5C 287.5,391.833 287.5,420.167 287.5,448.5C 286.833,448.5 286.5,448.167 286.5,447.5C 287.162,394.489 286.496,341.823 284.5,289.5C 284.5,289.167 284.5,288.833 284.5,288.5C 288.129,288.425 291.796,288.425 295.5,288.5C 296.075,284.527 298.242,283.527 302,285.5C 304.096,284.285 303.929,283.451 301.5,283C 302.056,282.617 302.389,282.117 302.5,281.5C 302.833,281.5 303.167,281.5 303.5,281.5C 306.85,281.665 310.183,281.498 313.5,281C 317.411,279.209 321.411,277.709 325.5,276.5 Z"/></g>
<g><path style="opacity:1" fill="#cbe1d6" d="M 243.5,277.5 C 250.354,280.627 257.354,283.293 264.5,285.5C 264.5,285.833 264.5,286.167 264.5,286.5C 258.468,285.016 252.468,283.182 246.5,281C 244.937,280.241 243.937,279.074 243.5,277.5 Z"/></g>
<g><path style="opacity:1" fill="#1d8552" d="M 288.5,237.5 C 289.75,237.577 290.583,238.244 291,239.5C 291.383,238.944 291.883,238.611 292.5,238.5C 292.285,240.179 292.952,241.179 294.5,241.5C 294.435,241.938 294.601,242.272 295,242.5C 295.278,241.584 295.778,240.918 296.5,240.5C 297.122,242.335 298.456,243.502 300.5,244C 298.166,247.796 296.833,251.963 296.5,256.5C 295.883,256.611 295.383,256.944 295,257.5C 293.71,264.169 293.543,270.836 294.5,277.5C 296.098,279.973 297.598,279.973 299,277.5C 299,278.833 299,280.167 299,281.5C 300.145,280.316 301.312,280.316 302.5,281.5C 302.389,282.117 302.056,282.617 301.5,283C 303.929,283.451 304.096,284.285 302,285.5C 298.242,283.527 296.075,284.527 295.5,288.5C 291.796,288.425 288.129,288.425 284.5,288.5C 284.389,287.883 284.056,287.383 283.5,287C 280.3,286.899 277.3,286.232 274.5,285C 275.884,281.9 278.051,280.733 281,281.5C 280.577,279.613 280.744,277.613 281.5,275.5C 282.222,275.918 282.722,276.584 283,277.5C 283.383,276.944 283.883,276.611 284.5,276.5C 285.833,276.5 286.5,275.833 286.5,274.5C 286.666,270.486 286.499,266.486 286,262.5C 283.834,256.537 282.667,250.537 282.5,244.5C 283.967,244.723 285.467,245.056 287,245.5C 287.822,242.883 288.322,240.216 288.5,237.5 Z"/></g>
<g><path style="opacity:1" fill="#4d846a" d="M 264.5,286.5 C 264.5,286.167 264.5,285.833 264.5,285.5C 271.09,286.789 277.756,287.789 284.5,288.5C 284.5,288.833 284.5,289.167 284.5,289.5C 283.833,289.5 283.167,289.5 282.5,289.5C 276.442,288.826 270.442,287.826 264.5,286.5 Z"/></g>
<g><path style="opacity:1" fill="#cde2d8" d="M 331.5,280.5 C 328.565,282.573 325.399,284.573 322,286.5C 318.208,287.438 314.375,288.104 310.5,288.5C 310.5,288.167 310.5,287.833 310.5,287.5C 311.391,286.89 312.391,286.557 313.5,286.5C 319.563,284.701 325.563,282.701 331.5,280.5 Z"/></g>
<g><path style="opacity:1" fill="#337d58" d="M 409.5,279.5 C 407.887,282.286 406.054,284.953 404,287.5C 397.658,293.675 391.491,300.009 385.5,306.5C 380.473,309.345 375.806,312.679 371.5,316.5C 369.326,316.75 367.659,317.75 366.5,319.5C 364.02,320.242 361.687,321.242 359.5,322.5C 359.5,322.167 359.5,321.833 359.5,321.5C 363.245,319.876 366.245,317.376 368.5,314C 364.492,314.495 360.492,315.329 356.5,316.5C 371.852,307.649 385.518,296.649 397.5,283.5C 398.167,283.167 398.833,282.833 399.5,282.5C 399.461,283.583 399.127,284.583 398.5,285.5C 399,285.833 399.5,286.167 400,286.5C 403.144,284.024 406.311,281.691 409.5,279.5 Z"/></g>
<g><path style="opacity:1" fill="#a5c9b8" d="M 310.5,287.5 C 310.5,287.833 310.5,288.167 310.5,288.5C 305.515,289.248 300.515,289.915 295.5,290.5C 295.167,290.5 294.833,290.5 294.5,290.5C 294.5,290.167 294.5,289.833 294.5,289.5C 299.833,288.833 305.167,288.167 310.5,287.5 Z"/></g>
<g><path style="opacity:1" fill="#d1e6dc" d="M 409.5,279.5 C 409.833,279.5 410.167,279.5 410.5,279.5C 408.443,283.056 406.61,286.723 405,290.5C 398.341,295.661 391.841,300.994 385.5,306.5C 391.491,300.009 397.658,293.675 404,287.5C 406.054,284.953 407.887,282.286 409.5,279.5 Z"/></g>
<g><path style="opacity:1" fill="#2d7e58" d="M 171.5,277.5 C 173.201,277.966 174.701,277.966 176,277.5C 177.4,278.748 178.9,279.748 180.5,280.5C 185.14,285.806 190.14,290.806 195.5,295.5C 195.351,296.552 195.517,297.552 196,298.5C 197.697,299.364 198.863,300.697 199.5,302.5C 203.38,305.553 207.38,308.387 211.5,311C 213.025,312.009 214.692,312.509 216.5,312.5C 216.67,313.822 216.337,314.989 215.5,316C 213.455,316.49 211.455,316.323 209.5,315.5C 195.327,307.664 183.661,296.998 174.5,283.5C 174.539,280.911 173.539,278.911 171.5,277.5 Z"/></g>
<g><path style="opacity:1" fill="#3e8162" d="M 195.5,295.5 C 205.758,304.758 217.091,312.425 229.5,318.5C 233.203,320.679 237.203,322.345 241.5,323.5C 247.592,326.043 253.925,327.71 260.5,328.5C 260.5,328.833 260.5,329.167 260.5,329.5C 256.818,329.665 253.152,329.499 249.5,329C 244.813,326.549 239.813,324.882 234.5,324C 233.953,323.075 233.287,322.242 232.5,321.5C 228.578,319.954 224.745,318.287 221,316.5C 219.549,317.355 218.049,317.522 216.5,317C 215.748,317.671 215.414,318.504 215.5,319.5C 213.147,318.66 211.147,317.326 209.5,315.5C 211.455,316.323 213.455,316.49 215.5,316C 216.337,314.989 216.67,313.822 216.5,312.5C 214.692,312.509 213.025,312.009 211.5,311C 207.38,308.387 203.38,305.553 199.5,302.5C 198.863,300.697 197.697,299.364 196,298.5C 195.517,297.552 195.351,296.552 195.5,295.5 Z"/></g>
<g><path style="opacity:1" fill="#c1dbcc" d="M 371.5,316.5 C 370.514,318.408 368.848,319.408 366.5,319.5C 367.659,317.75 369.326,316.75 371.5,316.5 Z"/></g>
<g><path style="opacity:1" fill="#cde2d8" d="M 229.5,318.5 C 234.267,318.556 238.267,320.223 241.5,323.5C 237.203,322.345 233.203,320.679 229.5,318.5 Z"/></g>
<g><path style="opacity:1" fill="#208357" d="M 359.5,321.5 C 356.384,321.711 353.55,322.045 351,322.5C 350.536,321.906 350.369,321.239 350.5,320.5C 353.127,320.21 354.794,318.876 355.5,316.5C 355.833,316.5 356.167,316.5 356.5,316.5C 360.492,315.329 364.492,314.495 368.5,314C 366.245,317.376 363.245,319.876 359.5,321.5 Z"/></g>
<g><path style="opacity:1" fill="#53896f" d="M 355.5,316.5 C 354.794,318.876 353.127,320.21 350.5,320.5C 348.958,321.301 347.292,321.634 345.5,321.5C 348.515,319.326 351.849,317.659 355.5,316.5 Z"/></g>
<g><path style="opacity:1" fill="#257f54" d="M 260.5,329.5 C 262.545,330.923 263.545,332.923 263.5,335.5C 260.833,335.5 258.167,335.5 255.5,335.5C 254.041,335.567 252.708,335.234 251.5,334.5C 250.657,332.827 249.324,331.66 247.5,331C 242.227,329.512 236.893,328.346 231.5,327.5C 229.95,326.559 228.284,325.893 226.5,325.5C 223.55,322.192 219.884,320.192 215.5,319.5C 215.414,318.504 215.748,317.671 216.5,317C 218.049,317.522 219.549,317.355 221,316.5C 224.745,318.287 228.578,319.954 232.5,321.5C 233.287,322.242 233.953,323.075 234.5,324C 239.813,324.882 244.813,326.549 249.5,329C 253.152,329.499 256.818,329.665 260.5,329.5 Z"/></g>
<g><path style="opacity:1" fill="#548b70" d="M 215.5,319.5 C 219.884,320.192 223.55,322.192 226.5,325.5C 224.685,324.37 222.685,323.704 220.5,323.5C 218.651,322.407 216.984,321.074 215.5,319.5 Z"/></g>
<g><path style="opacity:1" fill="#6f9d87" d="M 337.5,324.5 C 334.548,326.41 331.214,327.41 327.5,327.5C 330.505,325.723 333.838,324.723 337.5,324.5 Z"/></g>
<g><path style="opacity:1" fill="#5d7888" d="M 399.5,326.5 C 397.425,326.302 395.425,326.135 393.5,326C 393.049,327.989 393.715,329.823 395.5,331.5C 392.045,330.872 390.878,328.872 392,325.5C 394.785,324.093 397.285,324.426 399.5,326.5 Z"/></g>
<g><path style="opacity:1" fill="#cee2d7" d="M 220.5,323.5 C 222.685,323.704 224.685,324.37 226.5,325.5C 228.284,325.893 229.95,326.559 231.5,327.5C 232.167,328.167 232.833,328.833 233.5,329.5C 228.722,328.275 224.388,326.275 220.5,323.5 Z"/></g>
<g><path style="opacity:1" fill="#79909e" d="M 180.5,326.5 C 178.68,328.448 176.346,329.448 173.5,329.5C 175.509,327.935 177.843,326.935 180.5,326.5 Z"/></g>
<g><path style="opacity:1" fill="#6d9883" d="M 327.5,327.5 C 325.162,329.04 322.495,329.706 319.5,329.5C 321.905,328.232 324.572,327.565 327.5,327.5 Z"/></g>
<g><path style="opacity:1" fill="#c2dbce" d="M 358.5,323.5 C 358.063,325.074 357.063,326.241 355.5,327C 352.054,327.661 348.721,328.495 345.5,329.5C 346.5,328.833 347.5,328.167 348.5,327.5C 351.829,326.169 355.162,324.836 358.5,323.5 Z"/></g>
<g><path style="opacity:1" fill="#607b8d" d="M 181.5,333.5 C 182.964,331.37 184.964,330.037 187.5,329.5C 187.5,328.5 187.5,327.5 187.5,326.5C 185.167,326.5 182.833,326.5 180.5,326.5C 182.795,324.615 185.462,324.115 188.5,325C 189.935,327.267 189.602,329.267 187.5,331C 185.593,332.122 183.593,332.955 181.5,333.5 Z"/></g>
<g><path style="opacity:1" fill="#3a7f5f" d="M 231.5,327.5 C 236.893,328.346 242.227,329.512 247.5,331C 249.324,331.66 250.657,332.827 251.5,334.5C 249.883,333.962 248.216,333.629 246.5,333.5C 242.303,331.768 237.969,330.435 233.5,329.5C 232.833,328.833 232.167,328.167 231.5,327.5 Z"/></g>
<g><path style="opacity:1" fill="#247b52" d="M 350.5,320.5 C 350.369,321.239 350.536,321.906 351,322.5C 353.55,322.045 356.384,321.711 359.5,321.5C 359.5,321.833 359.5,322.167 359.5,322.5C 358.833,322.5 358.5,322.833 358.5,323.5C 355.162,324.836 351.829,326.169 348.5,327.5C 344.831,327.332 341.498,328.332 338.5,330.5C 337.914,330.291 337.414,329.957 337,329.5C 335.214,332.362 332.881,333.028 330,331.5C 325.985,334.229 321.485,335.229 316.5,334.5C 316.721,332.336 317.721,330.67 319.5,329.5C 322.495,329.706 325.162,329.04 327.5,327.5C 331.214,327.41 334.548,326.41 337.5,324.5C 340.076,323.512 342.743,322.512 345.5,321.5C 347.292,321.634 348.958,321.301 350.5,320.5 Z"/></g>
<g><path style="opacity:1" fill="#477b61" d="M 260.5,329.5 C 264.984,329.289 266.817,331.289 266,335.5C 262.399,336.82 258.899,336.82 255.5,335.5C 258.167,335.5 260.833,335.5 263.5,335.5C 263.545,332.923 262.545,330.923 260.5,329.5 Z"/></g>
<g><path style="opacity:1" fill="#33648b" d="M 180.5,326.5 C 182.833,326.5 185.167,326.5 187.5,326.5C 187.5,327.5 187.5,328.5 187.5,329.5C 184.964,330.037 182.964,331.37 181.5,333.5C 177.25,335.362 172.917,337.028 168.5,338.5C 166.139,338.674 163.806,339.007 161.5,339.5C 161.5,338.5 161.5,337.5 161.5,336.5C 164.367,336.631 166.033,335.297 166.5,332.5C 168.509,330.935 170.843,329.935 173.5,329.5C 176.346,329.448 178.68,328.448 180.5,326.5 Z"/></g>
<g><path style="opacity:1" fill="#3b775b" d="M 348.5,327.5 C 347.5,328.167 346.5,328.833 345.5,329.5C 343.597,329.796 341.93,330.463 340.5,331.5C 336.265,332.467 332.265,333.8 328.5,335.5C 324.181,336.249 319.848,336.415 315.5,336C 313.339,331.552 314.672,329.385 319.5,329.5C 317.721,330.67 316.721,332.336 316.5,334.5C 321.485,335.229 325.985,334.229 330,331.5C 332.881,333.028 335.214,332.362 337,329.5C 337.414,329.957 337.914,330.291 338.5,330.5C 341.498,328.332 344.831,327.332 348.5,327.5 Z"/></g>
<g><path style="opacity:1" fill="#bfdbcd" d="M 340.5,331.5 C 340.389,332.117 340.056,332.617 339.5,333C 335.93,334.31 332.263,335.143 328.5,335.5C 332.265,333.8 336.265,332.467 340.5,331.5 Z"/></g>
<g><path style="opacity:1" fill="#37638a" d="M 399.5,326.5 C 402.686,327.597 405.686,328.93 408.5,330.5C 408.953,331.458 409.619,332.292 410.5,333C 414.033,333.874 417.366,335.208 420.5,337C 421.211,338.255 422.044,339.421 423,340.5C 423.914,339.346 424.747,339.513 425.5,341C 428.854,341.455 432.187,341.955 435.5,342.5C 436.234,343.708 436.567,345.041 436.5,346.5C 432.557,345.514 428.557,344.848 424.5,344.5C 414.651,340.406 404.984,336.072 395.5,331.5C 393.715,329.823 393.049,327.989 393.5,326C 395.425,326.135 397.425,326.302 399.5,326.5 Z"/></g>
<g><path style="opacity:1" fill="#d1e5da" d="M 260.5,329.5 C 260.5,329.167 260.5,328.833 260.5,328.5C 263.321,328.539 265.988,329.205 268.5,330.5C 268.569,332.278 268.903,334.111 269.5,336C 262.857,337.893 256.19,337.893 249.5,336C 248.058,335.623 247.058,334.79 246.5,333.5C 248.216,333.629 249.883,333.962 251.5,334.5C 252.708,335.234 254.041,335.567 255.5,335.5C 258.899,336.82 262.399,336.82 266,335.5C 266.817,331.289 264.984,329.289 260.5,329.5 Z"/></g>
<g><path style="opacity:1" fill="#486a88" d="M 408.5,330.5 C 415.708,333.51 423.041,336.344 430.5,339C 432.233,340.189 433.9,341.356 435.5,342.5C 432.187,341.955 428.854,341.455 425.5,341C 424.747,339.513 423.914,339.346 423,340.5C 422.044,339.421 421.211,338.255 420.5,337C 417.366,335.208 414.033,333.874 410.5,333C 409.619,332.292 408.953,331.458 408.5,330.5 Z"/></g>
<g><path style="opacity:1" fill="#3f6687" d="M 166.5,332.5 C 166.033,335.297 164.367,336.631 161.5,336.5C 161.5,337.5 161.5,338.5 161.5,339.5C 163.806,339.007 166.139,338.674 168.5,338.5C 161.205,341.812 153.871,345.146 146.5,348.5C 148.193,346.398 150.359,344.732 153,343.5C 153.688,342.668 153.521,342.002 152.5,341.5C 148.321,344.144 143.988,345.144 139.5,344.5C 148.124,339.733 157.124,335.733 166.5,332.5 Z"/></g>
<g><path style="opacity:1" fill="#337a59" d="M 293.5,290.5 C 293.833,343.171 293.5,395.838 292.5,448.5C 291.264,449.246 289.93,449.579 288.5,449.5C 287.833,449.5 287.5,449.167 287.5,448.5C 289.143,448.52 290.476,447.853 291.5,446.5C 292.5,410.173 292.833,373.839 292.5,337.5C 292.5,332.167 292.5,326.833 292.5,321.5C 292.785,316.103 292.451,310.77 291.5,305.5C 292.121,300.368 292.787,295.368 293.5,290.5 Z"/></g>
<g><path style="opacity:1" fill="#4f718c" d="M 369.5,344.5 C 367.669,345.052 366.003,345.052 364.5,344.5C 363.348,346.397 363.681,348.064 365.5,349.5C 362.909,348.746 361.076,347.079 360,344.5C 359.164,340.675 360.664,339.175 364.5,340C 366.66,340.996 368.327,342.496 369.5,344.5 Z"/></g>
<g><path style="opacity:1" fill="#35618a" d="M 369.5,344.5 C 369.833,344.5 370.167,344.5 370.5,344.5C 371.038,346.117 371.371,347.784 371.5,349.5C 374.91,349.384 376.244,351.05 375.5,354.5C 372.095,353.962 369.095,352.629 366.5,350.5C 365.833,350.5 365.5,350.167 365.5,349.5C 363.681,348.064 363.348,346.397 364.5,344.5C 366.003,345.052 367.669,345.052 369.5,344.5 Z"/></g>
<g><path style="opacity:1" fill="#446b8a" d="M 435.5,342.5 C 442.014,344.092 448.014,346.758 453.5,350.5C 450.545,349.841 447.545,349.508 444.5,349.5C 444.5,350.833 444.5,352.167 444.5,353.5C 437.542,350.86 430.876,347.86 424.5,344.5C 428.557,344.848 432.557,345.514 436.5,346.5C 436.567,345.041 436.234,343.708 435.5,342.5 Z"/></g>
<g><path style="opacity:1" fill="#496a84" d="M 204.5,359.5 C 203.79,356.14 205.124,354.307 208.5,354C 209.893,352.829 210.727,351.329 211,349.5C 212.813,350.609 213.646,349.942 213.5,347.5C 217.864,347.335 218.364,346.002 215,343.5C 211.833,346.333 208.667,349.167 205.5,352C 204.207,352.49 202.873,352.657 201.5,352.5C 205.972,348.199 210.639,344.032 215.5,340C 219.506,339.013 221.339,340.513 221,344.5C 215.752,349.858 210.252,354.858 204.5,359.5 Z"/></g>
<g><path style="opacity:1" fill="#3e688a" d="M 146.5,348.5 C 136.801,353.345 126.801,357.678 116.5,361.5C 116.541,359.255 117.375,358.588 119,359.5C 122.669,357.126 126.502,355.126 130.5,353.5C 131.287,352.758 131.953,351.925 132.5,351C 135.149,350.548 137.649,349.714 140,348.5C 142.027,348.986 144.193,348.986 146.5,348.5 Z"/></g>
<g><path style="opacity:1" fill="#7aa28f" d="M 294.5,289.5 C 294.5,289.833 294.5,290.167 294.5,290.5C 294.829,343.905 294.495,397.238 293.5,450.5C 291.585,450.784 289.919,450.451 288.5,449.5C 289.93,449.579 291.264,449.246 292.5,448.5C 293.5,395.838 293.833,343.171 293.5,290.5C 293.5,289.833 293.833,289.5 294.5,289.5 Z"/></g>
<g><path style="opacity:1" fill="#1e7b48" d="M 292.5,321.5 C 292.5,326.833 292.5,332.167 292.5,337.5C 291.448,337.351 290.448,337.517 289.5,338C 290.352,340.417 291.019,342.917 291.5,345.5C 290.833,352.167 290.167,358.833 289.5,365.5C 290.599,374.148 290.599,382.981 289.5,392C 291.343,405.589 291.343,419.089 289.5,432.5C 292.002,436.403 291.836,440.07 289,443.5C 288.832,416.664 288.332,389.997 287.5,363.5C 288.156,341.898 288.823,320.232 289.5,298.5C 290.881,299 291.547,300 291.5,301.5C 290.924,304.635 290.591,307.802 290.5,311C 290.304,314.805 290.97,318.305 292.5,321.5 Z"/></g>
<g><path style="opacity:1" fill="#aebecc" d="M 379.5,352.5 C 381.404,352.738 382.738,353.738 383.5,355.5C 381.596,355.262 380.262,354.262 379.5,352.5 Z"/></g>
<g><path style="opacity:1" fill="#56748e" d="M 132.5,347.5 C 127.373,351.779 121.373,354.446 114.5,355.5C 120.196,352.322 126.196,349.656 132.5,347.5 Z"/></g>
<g><path style="opacity:1" fill="#376289" d="M 453.5,350.5 C 456.38,350.94 459.046,351.94 461.5,353.5C 461.804,354.15 462.137,354.817 462.5,355.5C 469.77,357.994 476.77,361.161 483.5,365C 480.167,365.114 476.834,364.781 473.5,364C 469.518,362.459 465.518,361.292 461.5,360.5C 455.782,358.37 450.115,356.036 444.5,353.5C 444.5,352.167 444.5,350.833 444.5,349.5C 447.545,349.508 450.545,349.841 453.5,350.5 Z"/></g>
<g><path style="opacity:1" fill="#2b5e88" d="M 146.5,348.5 C 144.193,348.986 142.027,348.986 140,348.5C 137.649,349.714 135.149,350.548 132.5,351C 131.953,351.925 131.287,352.758 130.5,353.5C 126.502,355.126 122.669,357.126 119,359.5C 117.375,358.588 116.541,359.255 116.5,361.5C 108.494,362.751 100.994,365.417 94,369.5C 93.5,369.167 93,368.833 92.5,368.5C 96.6088,364.339 101.609,361.672 107.5,360.5C 110.43,359.547 112.763,357.88 114.5,355.5C 121.373,354.446 127.373,351.779 132.5,347.5C 134.509,345.935 136.843,344.935 139.5,344.5C 143.988,345.144 148.321,344.144 152.5,341.5C 153.521,342.002 153.688,342.668 153,343.5C 150.359,344.732 148.193,346.398 146.5,348.5 Z"/></g>
<g><path style="opacity:1" fill="#bbcdda" d="M 323.5,359.5 C 325.074,361.102 325.741,363.102 325.5,365.5C 323.926,363.898 323.259,361.898 323.5,359.5 Z"/></g>
<g><path style="opacity:1" fill="#3d6585" d="M 370.5,344.5 C 373.5,347.167 376.5,349.833 379.5,352.5C 380.262,354.262 381.596,355.262 383.5,355.5C 388.5,360.167 393.5,364.833 398.5,369.5C 395.141,367.846 393.141,368.846 392.5,372.5C 383.534,365.536 374.868,358.202 366.5,350.5C 369.095,352.629 372.095,353.962 375.5,354.5C 376.244,351.05 374.91,349.384 371.5,349.5C 371.371,347.784 371.038,346.117 370.5,344.5 Z"/></g>
<g><path style="opacity:1" fill="#466988" d="M 114.5,355.5 C 112.763,357.88 110.43,359.547 107.5,360.5C 101.609,361.672 96.6088,364.339 92.5,368.5C 93,368.833 93.5,369.167 94,369.5C 100.994,365.417 108.494,362.751 116.5,361.5C 108.093,365.867 99.4261,369.867 90.5,373.5C 91.9726,371.407 91.4726,369.74 89,368.5C 86.7635,369.056 84.7635,370.056 83,371.5C 82.1107,370.112 81.6107,370.278 81.5,372C 81.7336,373.732 82.7336,374.566 84.5,374.5C 86.1347,373.954 87.8014,373.62 89.5,373.5C 86.6137,375.846 83.2803,376.68 79.5,376C 78.0652,373.733 78.3985,371.733 80.5,370C 91.6527,364.674 102.986,359.84 114.5,355.5 Z"/></g>
<g><path style="opacity:1" fill="#3f6585" d="M 461.5,353.5 C 474.201,358.678 486.868,364.178 499.5,370C 501.698,371.67 502.032,373.67 500.5,376C 498.833,376.667 497.167,376.667 495.5,376C 483.957,371.058 472.624,365.891 461.5,360.5C 465.518,361.292 469.518,362.459 473.5,364C 476.834,364.781 480.167,365.114 483.5,365C 476.77,361.161 469.77,357.994 462.5,355.5C 462.137,354.817 461.804,354.15 461.5,353.5 Z"/></g>
<g><path style="opacity:1" fill="#345e83" d="M 204.5,359.5 C 190.794,371.874 176.794,383.874 162.5,395.5C 160.833,395.5 159.167,395.5 157.5,395.5C 158.167,393.5 158.833,391.5 159.5,389.5C 173.475,377.196 187.475,364.862 201.5,352.5C 202.873,352.657 204.207,352.49 205.5,352C 208.667,349.167 211.833,346.333 215,343.5C 218.364,346.002 217.864,347.335 213.5,347.5C 213.646,349.942 212.813,350.609 211,349.5C 210.727,351.329 209.893,352.829 208.5,354C 205.124,354.307 203.79,356.14 204.5,359.5 Z"/></g>
<g><path style="opacity:1" fill="#496a80" d="M 256.5,352.5 C 255.5,352.5 254.5,352.5 253.5,352.5C 251.64,360.442 248.64,367.776 244.5,374.5C 246.586,366.987 249.252,359.654 252.5,352.5C 253.958,351.218 255.292,351.218 256.5,352.5 Z"/></g>
<g><path style="opacity:1" fill="#b4c6d6" d="M 327.5,369.5 C 329.065,371.509 330.065,373.843 330.5,376.5C 328.166,374.824 327.166,372.491 327.5,369.5 Z"/></g>
<g><path style="opacity:1" fill="#2e5a89" d="M 90.5,373.5 C 90.1667,373.5 89.8333,373.5 89.5,373.5C 87.8014,373.62 86.1347,373.954 84.5,374.5C 82.7336,374.566 81.7336,373.732 81.5,372C 81.6107,370.278 82.1107,370.112 83,371.5C 84.7635,370.056 86.7635,369.056 89,368.5C 91.4726,369.74 91.9726,371.407 90.5,373.5 Z"/></g>
<g><path style="opacity:1" fill="#325c85" d="M 398.5,369.5 C 399.5,370.167 400.5,370.833 401.5,371.5C 402.018,374.68 403.684,377.013 406.5,378.5C 406.291,379.086 405.957,379.586 405.5,380C 407.421,380.36 409.088,381.194 410.5,382.5C 410.192,383.308 409.692,383.975 409,384.5C 406.749,383.588 404.583,382.588 402.5,381.5C 398.59,379.263 395.257,376.263 392.5,372.5C 393.141,368.846 395.141,367.846 398.5,369.5 Z"/></g>
<g><path style="opacity:1" fill="#71889f" d="M 338.5,377.5 C 340.065,379.509 341.065,381.843 341.5,384.5C 339.179,382.91 338.179,380.577 338.5,377.5 Z"/></g>
<g><path style="opacity:1" fill="#c1cdda" d="M 414.5,382.5 C 416.749,383.08 418.415,384.413 419.5,386.5C 417.251,385.92 415.585,384.587 414.5,382.5 Z"/></g>
<g><path style="opacity:1" fill="#cbd9e3" d="M 330.5,376.5 C 332.646,381.391 334.646,386.391 336.5,391.5C 332.393,387.546 330.393,382.546 330.5,376.5 Z"/></g>
<g><path style="opacity:1" fill="#406586" d="M 401.5,371.5 C 405.648,375.404 409.981,379.071 414.5,382.5C 415.585,384.587 417.251,385.92 419.5,386.5C 432.535,398.87 445.868,410.87 459.5,422.5C 457.072,421.788 454.739,420.788 452.5,419.5C 450.293,416.235 447.293,414.235 443.5,413.5C 443.36,415.124 444.027,416.29 445.5,417C 444.944,417.383 444.611,417.883 444.5,418.5C 430.475,406.138 416.475,393.804 402.5,381.5C 404.583,382.588 406.749,383.588 409,384.5C 409.692,383.975 410.192,383.308 410.5,382.5C 409.088,381.194 407.421,380.36 405.5,380C 405.957,379.586 406.291,379.086 406.5,378.5C 403.684,377.013 402.018,374.68 401.5,371.5 Z"/></g>
<g><path style="opacity:1" fill="#abbccb" d="M 336.5,391.5 C 337.537,392.93 338.204,394.597 338.5,396.5C 336.787,395.365 336.12,393.698 336.5,391.5 Z"/></g>
<g><path style="opacity:1" fill="#c9e5d7" d="M 282.5,289.5 C 283.167,289.5 283.833,289.5 284.5,289.5C 286.496,341.823 287.162,394.489 286.5,447.5C 285.501,395.336 285.168,343.003 285.5,290.5C 284.209,290.737 283.209,290.404 282.5,289.5 Z"/></g>
<g><path style="opacity:1" fill="#305e8c" d="M 419.5,392.5 C 421.125,391.675 422.792,392.008 424.5,393.5C 426.119,397.277 428.786,399.943 432.5,401.5C 432.333,401.833 432.167,402.167 432,402.5C 430.601,402.499 429.101,402.165 427.5,401.5C 425.363,399.462 423.363,397.295 421.5,395C 422.151,393.692 421.485,392.859 419.5,392.5 Z"/></g>
<g><path style="opacity:1" fill="#2c5783" d="M 233.5,400.5 C 233.5,400.167 233.5,399.833 233.5,399.5C 235.411,399.426 236.578,398.426 237,396.5C 237.923,398.034 238.423,399.701 238.5,401.5C 236.951,405.242 235.118,408.909 233,412.5C 232.056,411.737 231.556,410.737 231.5,409.5C 232.932,406.673 233.599,403.673 233.5,400.5 Z"/></g>
<g><path style="opacity:1" fill="#c1cbdd" d="M 339.5,399.5 C 341.4,402.518 342.733,405.851 343.5,409.5C 341.103,406.691 339.77,403.358 339.5,399.5 Z"/></g>
<g><path style="opacity:1" fill="#527387" d="M 341.5,384.5 C 345.123,391.36 347.79,398.693 349.5,406.5C 346.872,405.745 346.205,404.245 347.5,402C 346.584,401.626 345.75,401.126 345,400.5C 344.75,397.246 343.75,394.246 342,391.5C 341.503,389.19 341.337,386.857 341.5,384.5 Z"/></g>
<g><path style="opacity:1" fill="#396184" d="M 338.5,377.5 C 338.179,380.577 339.179,382.91 341.5,384.5C 341.337,386.857 341.503,389.19 342,391.5C 343.75,394.246 344.75,397.246 345,400.5C 345.75,401.126 346.584,401.626 347.5,402C 346.205,404.245 346.872,405.745 349.5,406.5C 353.112,411.971 355.778,417.971 357.5,424.5C 357.33,428.998 358.663,432.998 361.5,436.5C 361.296,440.22 362.296,443.553 364.5,446.5C 362.955,447.452 361.288,447.785 359.5,447.5C 355.344,437.014 351.01,426.681 346.5,416.5C 346.065,413.843 345.065,411.509 343.5,409.5C 342.733,405.851 341.4,402.518 339.5,399.5C 338.89,398.609 338.557,397.609 338.5,396.5C 338.204,394.597 337.537,392.93 336.5,391.5C 334.646,386.391 332.646,381.391 330.5,376.5C 330.065,373.843 329.065,371.509 327.5,369.5C 327.34,367.847 326.674,366.514 325.5,365.5C 325.741,363.102 325.074,361.102 323.5,359.5C 321.149,351.335 323.316,349.669 330,354.5C 332.847,362.188 335.68,369.854 338.5,377.5 Z"/></g>
<g><path style="opacity:1" fill="#3f6280" d="M 159.5,389.5 C 158.833,391.5 158.167,393.5 157.5,395.5C 159.167,395.5 160.833,395.5 162.5,395.5C 157.062,400.725 151.395,405.725 145.5,410.5C 146.687,408.095 148.187,405.761 150,403.5C 151.011,402.663 152.178,402.33 153.5,402.5C 153.826,400.339 154.826,398.506 156.5,397C 155.167,396.333 153.833,396.333 152.5,397C 149.3,400.275 145.8,403.109 142,405.5C 141.517,406.448 141.351,407.448 141.5,408.5C 140.448,408.351 139.448,408.517 138.5,409C 135.667,411.807 133,414.641 130.5,417.5C 128.677,418.747 126.677,419.414 124.5,419.5C 135.553,408.781 147.219,398.781 159.5,389.5 Z"/></g>
<g><path style="opacity:1" fill="#2d5c86" d="M 145.5,410.5 C 143.833,411.833 142.167,413.167 140.5,414.5C 136.723,415.102 133.89,417.102 132,420.5C 131.586,420.043 131.086,419.709 130.5,419.5C 128.967,421.289 127.967,423.289 127.5,425.5C 124.221,426.323 121.221,427.823 118.5,430C 118.833,430.333 119.167,430.667 119.5,431C 118.207,431.49 116.873,431.657 115.5,431.5C 115.351,430.448 115.517,429.448 116,428.5C 117.707,426.963 119.207,425.296 120.5,423.5C 121.5,421.833 122.833,420.5 124.5,419.5C 126.677,419.414 128.677,418.747 130.5,417.5C 133,414.641 135.667,411.807 138.5,409C 139.448,408.517 140.448,408.351 141.5,408.5C 141.351,407.448 141.517,406.448 142,405.5C 145.8,403.109 149.3,400.275 152.5,397C 153.833,396.333 155.167,396.333 156.5,397C 154.826,398.506 153.826,400.339 153.5,402.5C 152.178,402.33 151.011,402.663 150,403.5C 148.187,405.761 146.687,408.095 145.5,410.5 Z"/></g>
<g><path style="opacity:1" fill="#22794e" d="M 292.5,337.5 C 292.833,373.839 292.5,410.173 291.5,446.5C 290.476,447.853 289.143,448.52 287.5,448.5C 287.5,420.167 287.5,391.833 287.5,363.5C 288.332,389.997 288.832,416.664 289,443.5C 291.836,440.07 292.002,436.403 289.5,432.5C 291.343,419.089 291.343,405.589 289.5,392C 290.599,382.981 290.599,374.148 289.5,365.5C 290.167,358.833 290.833,352.167 291.5,345.5C 291.019,342.917 290.352,340.417 289.5,338C 290.448,337.517 291.448,337.351 292.5,337.5 Z"/></g>
<g><path style="opacity:1" fill="#3a6183" d="M 256.5,352.5 C 257.88,352.962 258.547,353.962 258.5,355.5C 246.161,386.852 233.828,418.186 221.5,449.5C 219.5,449.5 217.5,449.5 215.5,449.5C 215.337,447.143 215.503,444.81 216,442.5C 221.773,428.314 227.606,414.314 233.5,400.5C 233.599,403.673 232.932,406.673 231.5,409.5C 231.556,410.737 232.056,411.737 233,412.5C 235.118,408.909 236.951,405.242 238.5,401.5C 238.423,399.701 237.923,398.034 237,396.5C 236.578,398.426 235.411,399.426 233.5,399.5C 236.61,390.806 240.276,382.473 244.5,374.5C 248.64,367.776 251.64,360.442 253.5,352.5C 254.5,352.5 255.5,352.5 256.5,352.5 Z"/></g>
<g><path style="opacity:1" fill="#bbc9d6" d="M 343.5,409.5 C 345.065,411.509 346.065,413.843 346.5,416.5C 344.166,414.824 343.166,412.491 343.5,409.5 Z"/></g>
<g><path style="opacity:1" fill="#4c6a87" d="M 140.5,414.5 C 136.485,418.513 132.152,422.179 127.5,425.5C 127.967,423.289 128.967,421.289 130.5,419.5C 131.086,419.709 131.586,420.043 132,420.5C 133.89,417.102 136.723,415.102 140.5,414.5 Z"/></g>
<g><path style="opacity:1" fill="#496988" d="M 456.5,428.5 C 452.183,425.514 448.183,422.18 444.5,418.5C 446.144,418.714 447.644,418.38 449,417.5C 451.113,421.281 453.946,424.448 457.5,427C 456.944,427.383 456.611,427.883 456.5,428.5 Z"/></g>
<g><path style="opacity:1" fill="#325c84" d="M 459.5,422.5 C 461.5,424.167 463.5,425.833 465.5,427.5C 465.771,429.312 466.438,430.978 467.5,432.5C 472.005,436.689 477.005,440.022 482.5,442.5C 483.5,442.833 484.167,443.5 484.5,444.5C 484.033,447.297 482.367,448.631 479.5,448.5C 475.209,445.877 471.543,442.544 468.5,438.5C 467.962,436.883 467.629,435.216 467.5,433.5C 463.706,432.103 460.039,430.436 456.5,428.5C 456.611,427.883 456.944,427.383 457.5,427C 453.946,424.448 451.113,421.281 449,417.5C 447.644,418.38 446.144,418.714 444.5,418.5C 444.611,417.883 444.944,417.383 445.5,417C 444.027,416.29 443.36,415.124 443.5,413.5C 447.293,414.235 450.293,416.235 452.5,419.5C 454.739,420.788 457.072,421.788 459.5,422.5 Z"/></g>
<g><path style="opacity:1" fill="#718a9e" d="M 357.5,424.5 C 359.679,428.203 361.345,432.203 362.5,436.5C 362.167,436.5 361.833,436.5 361.5,436.5C 358.663,432.998 357.33,428.998 357.5,424.5 Z"/></g>
<g><path style="opacity:1" fill="#48698a" d="M 120.5,423.5 C 119.207,425.296 117.707,426.963 116,428.5C 115.517,429.448 115.351,430.448 115.5,431.5C 116.873,431.657 118.207,431.49 119.5,431C 119.167,430.667 118.833,430.333 118.5,430C 121.221,427.823 124.221,426.323 127.5,425.5C 123.133,429.868 118.467,433.868 113.5,437.5C 113.662,435.473 113.495,433.473 113,431.5C 111.075,432.88 109.241,434.38 107.5,436C 108.337,437.011 108.67,438.178 108.5,439.5C 107.778,439.082 107.278,438.416 107,437.5C 105.25,437.587 103.417,438.254 101.5,439.5C 107.269,433.456 113.602,428.122 120.5,423.5 Z"/></g>
<g><path style="opacity:1" fill="#2d5b85" d="M 113.5,437.5 C 113.167,438.5 112.5,439.167 111.5,439.5C 110.5,439.5 109.5,439.5 108.5,439.5C 108.67,438.178 108.337,437.011 107.5,436C 109.241,434.38 111.075,432.88 113,431.5C 113.495,433.473 113.662,435.473 113.5,437.5 Z"/></g>
<g><path style="opacity:1" fill="#4b6b87" d="M 456.5,428.5 C 460.039,430.436 463.706,432.103 467.5,433.5C 467.629,435.216 467.962,436.883 468.5,438.5C 463.752,436.118 459.752,432.784 456.5,428.5 Z"/></g>
<g><path style="opacity:1" fill="#4a6b85" d="M 465.5,427.5 C 471.514,432.186 477.181,437.186 482.5,442.5C 477.005,440.022 472.005,436.689 467.5,432.5C 466.438,430.978 465.771,429.312 465.5,427.5 Z"/></g>
<g><path style="opacity:1" fill="#dff3e8" d="M 294.5,290.5 C 294.833,290.5 295.167,290.5 295.5,290.5C 296.162,344.177 295.496,397.51 293.5,450.5C 294.495,397.238 294.829,343.905 294.5,290.5 Z"/></g>
<g><path style="opacity:1" fill="#2a5980" d="M 108.5,439.5 C 106.424,441.714 103.758,443.214 100.5,444C 101.784,445.297 101.617,446.464 100,447.5C 98.2942,446.692 97.4609,445.359 97.5,443.5C 98.5,441.833 99.8333,440.5 101.5,439.5C 103.417,438.254 105.25,437.587 107,437.5C 107.278,438.416 107.778,439.082 108.5,439.5 Z"/></g>
<g><path style="opacity:1" fill="#456680" d="M 108.5,439.5 C 109.5,439.5 110.5,439.5 111.5,439.5C 107.908,442.984 104.241,446.484 100.5,450C 95.9167,450.934 94.4167,449.1 96,444.5C 96.3826,443.944 96.8826,443.611 97.5,443.5C 97.4609,445.359 98.2942,446.692 100,447.5C 101.617,446.464 101.784,445.297 100.5,444C 103.758,443.214 106.424,441.714 108.5,439.5 Z"/></g>
<g><path style="opacity:1" fill="#526a81" d="M 361.5,436.5 C 361.833,436.5 362.167,436.5 362.5,436.5C 365.129,440.027 365.962,444.027 365,448.5C 362.765,449.98 360.932,449.647 359.5,447.5C 361.288,447.785 362.955,447.452 364.5,446.5C 362.296,443.553 361.296,440.22 361.5,436.5 Z"/></g>
<g><path style="opacity:1" fill="#6c7c8a" d="M 484.5,444.5 C 485.451,445.919 485.784,447.585 485.5,449.5C 483.265,449.795 481.265,449.461 479.5,448.5C 482.367,448.631 484.033,447.297 484.5,444.5 Z"/></g>
</svg>
